<?xml version="1.0" encoding="UTF-8"?>
<!DOCTYPE svg PUBLIC "-//W3C//DTD SVG 1.1//EN" "http://www.w3.org/Graphics/SVG/1.1/DTD/svg11.dtd">
<svg xmlns="http://www.w3.org/2000/svg" version="1.1" width="728px" height="381px" style="shape-rendering:geometricPrecision; text-rendering:geometricPrecision; image-rendering:optimizeQuality; fill-rule:evenodd; clip-rule:evenodd" xmlns:xlink="http://www.w3.org/1999/xlink">
<g><path style="opacity:0.451" fill="#928d8c" d="M 251.5,49.5 C 252.249,50.531 252.915,51.6976 253.5,53C 255.519,53.4497 257.352,54.283 259,55.5C 259.689,54.6433 260.522,53.9767 261.5,53.5C 261.154,55.6338 262.154,57.4671 264.5,59C 265.833,59 267.167,59 268.5,59C 266.86,61.7758 267.527,63.7758 270.5,65C 269.786,66.3431 270.12,67.6764 271.5,69C 272.738,68.9227 273.738,69.0894 274.5,69.5C 272.914,71.1727 272.247,73.1727 272.5,75.5C 276.133,75.443 276.3,76.443 273,78.5C 272.855,82.5225 272.021,86.3558 270.5,90C 271.357,90.6891 272.023,91.5224 272.5,92.5C 271.302,92.9396 270.135,93.273 269,93.5C 268.405,94.8989 268.572,96.2322 269.5,97.5C 266.731,97.3203 264.564,98.6536 263,101.5C 261.286,100.075 259.953,100.408 259,102.5C 256.546,100.987 254.879,101.654 254,104.5C 252.149,101.936 250.316,101.936 248.5,104.5C 247.167,101.833 245.833,101.833 244.5,104.5C 243.655,102.238 242.322,101.571 240.5,102.5C 239.063,99.9557 237.563,99.9557 236,102.5C 237.378,97.8564 235.545,95.3564 230.5,95C 231.167,94.3333 231.833,93.6667 232.5,93C 231.624,90.6243 229.958,89.1243 227.5,88.5C 230.413,86.099 230.079,84.7657 226.5,84.5C 226.66,94.1889 221.994,100.356 212.5,103C 206.482,103.988 200.649,103.488 195,101.5C 191.994,104.285 189.494,103.952 187.5,100.5C 188.025,99.8076 188.692,99.3076 189.5,99C 187.32,96.5823 186.987,93.9156 188.5,91C 193.97,90.1488 199.303,90.6488 204.5,92.5C 207.45,91.3753 209.45,89.3753 210.5,86.5C 210.392,85.5581 210.059,84.7247 209.5,84C 201.525,83.1724 193.858,81.8391 186.5,80C 187.167,79.3333 187.833,78.6667 188.5,78C 183.616,68.3994 184.95,59.7328 192.5,52C 201.52,50.5758 210.52,50.0758 219.5,50.5C 220.386,51.325 220.719,52.325 220.5,53.5C 219.127,53.3433 217.793,53.51 216.5,54C 218.9,54.1858 221.234,54.6858 223.5,55.5C 222.167,56.1667 220.833,56.8333 219.5,57.5C 222.122,60.7028 222.122,63.8695 219.5,67C 214.303,66.4369 209.303,64.9369 204.5,62.5C 200.393,63.3754 199.727,65.2087 202.5,68C 207.977,69.6037 213.311,71.6037 218.5,74C 221.959,76.0815 224.626,78.9149 226.5,82.5C 229.28,79.7276 228.946,77.2276 225.5,75C 227.708,74.0644 229.042,72.3977 229.5,70C 228.692,69.6924 228.025,69.1924 227.5,68.5C 229.762,67.6551 230.429,66.3217 229.5,64.5C 230.325,63.6143 231.325,63.281 232.5,63.5C 232.579,62.0695 232.246,60.7362 231.5,59.5C 232.716,58.9041 234.049,58.7374 235.5,59C 237.001,56.6803 238.668,54.8469 240.5,53.5C 243.715,53.8197 247.048,53.8197 250.5,53.5C 250.433,52.0413 250.766,50.7079 251.5,49.5 Z M 217.5,63.5 C 215.389,62.2584 213.389,62.2584 211.5,63.5C 208.538,62.9391 205.705,61.9391 203,60.5C 201.24,61.6301 199.407,62.6301 197.5,63.5C 199.435,64.213 199.768,65.213 198.5,66.5C 197.624,66.3691 196.957,66.7025 196.5,67.5C 197.614,68.7759 198.614,68.7759 199.5,67.5C 206.741,70.0817 213.741,73.415 220.5,77.5C 227.4,84.6282 227.066,91.4615 219.5,98C 216.5,99.5 213.5,101 210.5,102.5C 208.197,101.319 205.863,101.319 203.5,102.5C 199.243,101.488 195.243,100.154 191.5,98.5C 197.757,97.5346 198.09,95.368 192.5,92C 197.061,91.4598 201.394,92.2932 205.5,94.5C 207.817,92.684 209.984,90.684 212,88.5C 212.333,89.1667 212.667,89.8333 213,90.5C 214.009,88.9751 214.509,87.3084 214.5,85.5C 215.805,82.6203 214.805,81.1203 211.5,81C 212.823,81.8159 213.489,82.9826 213.5,84.5C 212.373,83.8783 211.373,83.045 210.5,82C 204.354,81.968 198.354,81.1347 192.5,79.5C 190.703,76.7209 190.203,73.7209 191,70.5C 192.757,69.8811 193.924,68.7144 194.5,67C 194.15,65.7425 193.483,65.4092 192.5,66C 190,67.1667 188.167,69 187,71.5C 186.262,67.7387 186.595,64.0721 188,60.5C 189.143,63.9153 190.81,64.2486 193,61.5C 193.14,58.9568 193.806,56.6234 195,54.5C 197.12,57.3861 199.287,57.7194 201.5,55.5C 200.335,54.4164 199.002,53.5831 197.5,53C 200.5,52.5 203.5,52 206.5,51.5C 210.59,52.3612 213.924,53.8612 216.5,56C 214.275,56.5611 212.275,57.5611 210.5,59C 212.891,60.6032 215.224,62.1032 217.5,63.5 Z M 247.5,54.5 C 249.143,54.4802 250.476,55.1468 251.5,56.5C 253.912,55.1823 256.246,55.349 258.5,57C 257.179,58.5445 257.512,59.7112 259.5,60.5C 260.258,59.1886 261.258,58.6886 262.5,59C 265.187,61.251 266.187,63.9176 265.5,67C 266.482,68.0544 267.649,68.5544 269,68.5C 269.483,69.448 269.649,70.448 269.5,71.5C 267.654,71.2222 266.32,71.8888 265.5,73.5C 267.437,74.1575 269.27,74.4908 271,74.5C 271.694,78.0022 271.194,81.3355 269.5,84.5C 267.929,83.6906 266.262,83.3573 264.5,83.5C 264.5,84.5 264.5,85.5 264.5,86.5C 266.527,86.3379 268.527,86.5045 270.5,87C 269.126,89.5829 267.626,92.0829 266,94.5C 264.815,92.4407 263.648,92.274 262.5,94C 265.075,97.2923 264.075,98.6257 259.5,98C 258.62,96.6439 258.286,95.1439 258.5,93.5C 257.5,93.5 256.5,93.5 255.5,93.5C 255.674,95.861 256.007,98.1944 256.5,100.5C 252.449,100.923 248.616,100.256 245,98.5C 244.055,98.9054 243.388,99.572 243,100.5C 242.075,99.9535 241.242,99.2868 240.5,98.5C 241.954,96.7367 241.62,95.4033 239.5,94.5C 238.808,95.0253 238.308,95.6919 238,96.5C 236.167,94.3333 234.333,92.1667 232.5,90C 234.134,89.5065 235.801,89.3398 237.5,89.5C 237.5,88.5 237.5,87.5 237.5,86.5C 235.516,86.3832 233.85,87.0499 232.5,88.5C 231.394,86.7156 231.394,84.8822 232.5,83C 231.091,81.0166 230.091,78.85 229.5,76.5C 231.401,75.7691 233.401,75.7691 235.5,76.5C 235.5,75.5 235.5,74.5 235.5,73.5C 233.856,73.2865 232.356,73.6198 231,74.5C 230.333,73.1667 230.333,71.8333 231,70.5C 232.156,71.9928 232.99,71.8261 233.5,70C 233.095,69.0546 232.428,68.3879 231.5,68C 232.5,67.1667 233.5,66.3333 234.5,65.5C 234.291,64.914 233.957,64.414 233.5,64C 236.54,61.4896 239.54,58.9896 242.5,56.5C 243.281,57.7287 243.781,59.062 244,60.5C 246.316,59.4776 246.816,57.9776 245.5,56C 246.416,55.7216 247.082,55.2216 247.5,54.5 Z M 190.5,56.5 C 191.465,57.7211 191.298,59.0544 190,60.5C 189.421,59.0715 189.588,57.7382 190.5,56.5 Z M 211.5,63.5 C 213.741,63.9539 215.741,63.9539 217.5,63.5C 218.167,63.5 218.833,63.5 219.5,63.5C 219.539,64.7562 219.039,65.7562 218,66.5C 215.706,65.5783 213.539,64.5783 211.5,63.5 Z M 191.5,93.5 C 190.711,93.2172 190.044,92.7172 189.5,92C 190.816,91.4719 191.483,91.9719 191.5,93.5 Z"/></g>
<g><path style="opacity:0.526" fill="#928d8c" d="M 346.5,49.5 C 349.456,50.1371 352.456,50.6371 355.5,51C 360.725,57.8936 365.558,65.0603 370,72.5C 371.891,65.8595 373.058,58.8595 373.5,51.5C 376.518,51.3354 379.518,51.502 382.5,52C 388.552,53.0317 390.218,56.5317 387.5,62.5C 387.618,65.3713 388.284,68.038 389.5,70.5C 389.192,71.3081 388.692,71.9747 388,72.5C 387.318,82.584 386.818,92.584 386.5,102.5C 385.975,103.192 385.308,103.692 384.5,104C 380.167,104.667 375.833,104.667 371.5,104C 368.948,99.062 365.782,94.562 362,90.5C 359.845,85.6753 357.512,81.0087 355,76.5C 354.547,79.8404 354.047,83.1738 353.5,86.5C 354.498,91.4759 354.665,96.4759 354,101.5C 348.037,101.917 342.037,102.25 336,102.5C 333.194,102.626 330.86,103.626 329,105.5C 327.527,105.097 326.194,104.43 325,103.5C 322.232,103.298 319.399,103.298 316.5,103.5C 314.945,103.278 313.611,102.611 312.5,101.5C 309.16,102.494 305.827,103.494 302.5,104.5C 300.595,103.935 298.929,102.935 297.5,101.5C 295.758,103.973 293.925,103.973 292,101.5C 291.311,102.357 290.478,103.023 289.5,103.5C 284.657,102.117 280.157,102.784 276,105.5C 275.228,105.355 274.561,105.022 274,104.5C 272.703,100.846 273.703,98.1792 277,96.5C 277.333,81.5 277.667,66.5 278,51.5C 283.053,52.2025 288.22,52.2025 293.5,51.5C 293.814,54.9466 294.648,58.2799 296,61.5C 297.996,66.1634 300.496,70.4967 303.5,74.5C 307.627,67.0794 311.627,59.5794 315.5,52C 318.525,51.6393 321.525,51.1393 324.5,50.5C 325.554,50.6799 326.554,51.0133 327.5,51.5C 328.333,66.8225 328.833,82.1558 329,97.5C 332.057,98.4505 335.223,98.7839 338.5,98.5C 339.86,82.9756 340.693,67.6422 341,52.5C 342.649,51.0472 344.482,50.0472 346.5,49.5 Z M 326.5,53.5 C 324.068,53.6357 321.568,53.9691 319,54.5C 318.5,54 318,53.5 317.5,53C 320.696,52.1955 323.696,52.3622 326.5,53.5 Z M 326.5,53.5 C 327.156,54.6216 327.489,55.9549 327.5,57.5C 326.834,64.1527 326.334,70.8194 326,77.5C 325.264,69.4647 325.431,61.4647 326.5,53.5 Z M 375.5,54.5 C 378.304,53.3622 381.304,53.1955 384.5,54C 383,54.5 381.5,55 380,55.5C 378.56,54.8524 377.06,54.5191 375.5,54.5 Z M 318.5,55.5 C 320.5,55.5 322.5,55.5 324.5,55.5C 324.831,63.8599 324.498,72.1932 323.5,80.5C 322.59,78.3451 321.423,76.3451 320,74.5C 319.626,75.4162 319.126,76.2496 318.5,77C 315.097,77.5783 311.93,78.7449 309,80.5C 308.056,79.737 307.556,78.737 307.5,77.5C 311.162,70.1764 314.828,62.8431 318.5,55.5 Z M 281.5,56.5 C 284.448,56.2229 287.281,56.5562 290,57.5C 293.819,64.9749 296.819,72.6415 299,80.5C 296.328,77.9781 293.328,77.3114 290,78.5C 288.518,76.8881 286.685,75.8881 284.5,75.5C 284.5,77.5 284.5,79.5 284.5,81.5C 283.5,81.5 282.5,81.5 281.5,81.5C 281.5,73.1667 281.5,64.8333 281.5,56.5 Z M 344.5,57.5 C 346.288,56.3775 348.288,56.2109 350.5,57C 348.598,58.7959 346.598,58.9626 344.5,57.5 Z M 357.5,59.5 C 358.376,59.3691 359.043,59.7025 359.5,60.5C 357.192,61.8734 356.525,61.5401 357.5,59.5 Z M 341.5,63.5 C 341.735,62.9033 342.235,62.5699 343,62.5C 344.811,63.0779 346.645,63.5779 348.5,64C 346.234,65.3395 343.901,65.1729 341.5,63.5 Z M 359.5,64.5 C 359.783,63.7109 360.283,63.0442 361,62.5C 361.528,63.816 361.028,64.4827 359.5,64.5 Z M 379.5,64.5 C 380.312,63.0069 381.645,62.3402 383.5,62.5C 387.259,62.9698 387.426,63.9698 384,65.5C 382.56,64.8524 381.06,64.5191 379.5,64.5 Z M 354.5,63.5 C 357.001,63.5109 357.168,64.1776 355,65.5C 354.536,64.9056 354.369,64.2389 354.5,63.5 Z M 360.5,67.5 C 361.314,65.7274 362.648,65.2274 364.5,66C 363.255,66.7914 361.922,67.2914 360.5,67.5 Z M 343.5,69.5 C 346.355,68.1968 349.355,68.1968 352.5,69.5C 349.463,70.7412 346.463,70.7412 343.5,69.5 Z M 373.5,70.5 C 374.802,71.8069 376.135,71.8069 377.5,70.5C 378.583,71.365 378.749,72.365 378,73.5C 375.974,73.0853 374.474,72.0853 373.5,70.5 Z M 384.5,70.5 C 385.014,71.6246 385.347,72.7913 385.5,74C 383.833,74.6667 382.167,74.6667 380.5,74C 382.324,73.34 383.657,72.1733 384.5,70.5 Z M 346.5,72.5 C 348.604,72.2011 350.604,72.5344 352.5,73.5C 352.167,73.8333 351.833,74.1667 351.5,74.5C 349.664,73.9724 347.997,73.3058 346.5,72.5 Z M 299.5,73.5 C 301.137,75.3162 302.637,77.3162 304,79.5C 306.139,74.6011 306.973,75.2677 306.5,81.5C 309.821,81.5358 312.988,80.8692 316,79.5C 319.023,80.263 321.856,81.4296 324.5,83C 321.667,84.8333 321.833,86.3333 325,87.5C 326.024,92.0984 325.524,96.4317 323.5,100.5C 317.841,101.2 312.174,100.866 306.5,99.5C 305.846,97.8849 305.346,96.2182 305,94.5C 304.794,97.6229 304.127,100.623 303,103.5C 300,101.957 299.334,99.9573 301,97.5C 301.419,98.6721 302.085,99.6721 303,100.5C 303.667,95.8333 303.667,91.1667 303,86.5C 302.888,91.9959 300.888,96.6626 297,100.5C 294.388,99.9954 291.888,99.662 289.5,99.5C 287.236,100.219 284.903,100.552 282.5,100.5C 281.537,96.204 281.371,91.8706 282,87.5C 282.333,87.8333 282.667,88.1667 283,88.5C 283.374,87.5838 283.874,86.7504 284.5,86C 283.376,85.7508 282.376,85.2508 281.5,84.5C 285.223,82.5382 289.057,80.8716 293,79.5C 295.663,80.9114 298.496,81.9114 301.5,82.5C 301.127,79.4261 300.461,76.4261 299.5,73.5 Z M 361.5,73.5 C 360.998,75.0847 359.998,75.5847 358.5,75C 359.244,73.9614 360.244,73.4614 361.5,73.5 Z M 373.5,74.5 C 377.623,74.7978 381.623,75.6311 385.5,77C 382.5,77.6667 379.5,77.6667 376.5,77C 374.881,76.7645 373.881,75.9311 373.5,74.5 Z M 345.5,75.5 C 347.288,75.2148 348.955,75.5481 350.5,76.5C 347.554,77.6548 344.554,77.8214 341.5,77C 343.058,76.79 344.391,76.29 345.5,75.5 Z M 364.5,77.5 C 363.4,80.0161 361.733,81.0161 359.5,80.5C 360.688,78.7377 362.355,77.7377 364.5,77.5 Z M 341.5,81.5 C 343.927,81.523 346.26,82.023 348.5,83C 347.333,83.1667 346.167,83.3333 345,83.5C 343.319,83.3917 342.152,82.7251 341.5,81.5 Z M 370.5,81.5 C 371.376,81.3691 372.043,81.7025 372.5,82.5C 370.467,86.007 367.467,87.507 363.5,87C 366.266,85.629 368.599,83.7957 370.5,81.5 Z M 377.5,81.5 C 380.413,82.2411 383.413,82.7411 386.5,83C 383.167,83.6667 379.833,83.6667 376.5,83C 377.056,82.6174 377.389,82.1174 377.5,81.5 Z M 361.5,82.5 C 365.133,82.443 365.3,83.443 362,85.5C 360.272,84.6477 360.105,83.6477 361.5,82.5 Z M 340.5,86.5 C 342.364,85.2072 344.364,85.2072 346.5,86.5C 344.599,87.2309 342.599,87.2309 340.5,86.5 Z M 350.5,86.5 C 351.776,87.3864 351.776,88.3864 350.5,89.5C 347.955,88.4508 347.955,87.4508 350.5,86.5 Z M 373.5,88.5 C 377.298,87.5166 381.298,87.1832 385.5,87.5C 385.719,88.675 385.386,89.675 384.5,90.5C 380.928,89.319 377.262,88.6524 373.5,88.5 Z M 366.5,88.5 C 368.657,89.0533 368.49,90.0533 366,91.5C 365.53,90.4232 365.697,89.4232 366.5,88.5 Z M 349.5,92.5 C 352.462,92.1167 353.462,93.1167 352.5,95.5C 351.205,94.9017 349.872,94.4017 348.5,94C 349.056,93.6174 349.389,93.1174 349.5,92.5 Z M 382.5,93.5 C 383.386,92.2241 384.386,92.2241 385.5,93.5C 384.767,94.087 383.767,94.087 382.5,93.5 Z M 368.5,94.5 C 369.251,93.4265 370.251,93.2599 371.5,94C 370.648,95.7284 369.648,95.895 368.5,94.5 Z M 370.5,96.5 C 371.773,97.0768 371.773,97.7435 370.5,98.5C 369.537,98.0302 369.537,97.3635 370.5,96.5 Z M 373.5,99.5 C 377.163,100.266 380.829,101.1 384.5,102C 383.892,102.87 383.059,103.37 382,103.5C 379.536,102.839 377.036,102.339 374.5,102C 373.748,101.329 373.414,100.496 373.5,99.5 Z"/></g>
<g><path style="opacity:0.586" fill="#928d8c" d="M 394.5,50.5 C 399.762,50.1953 404.928,50.5286 410,51.5C 410.037,66.5037 410.037,81.5037 410,96.5C 412.366,88.3976 415.7,80.7309 420,73.5C 422.33,66.5109 424.663,59.5109 427,52.5C 428.667,51.8333 430.333,51.1667 432,50.5C 435.275,50.7897 438.775,51.2897 442.5,52C 444.372,54.2932 445.872,56.7932 447,59.5C 449.77,72.5898 453.77,85.2565 459,97.5C 459.798,99.2588 459.631,100.926 458.5,102.5C 453.882,102.965 449.216,102.465 444.5,101C 442.963,98.7204 441.797,96.2204 441,93.5C 439.089,94.4453 437.089,94.4453 435,93.5C 433.674,93.7549 432.674,94.4216 432,95.5C 430.434,96.0606 429.101,95.3939 428,93.5C 427.014,95.7778 426.18,98.1111 425.5,100.5C 424.975,101.192 424.308,101.692 423.5,102C 418.846,102.689 414.346,102.189 410,100.5C 409.308,101.025 408.808,101.692 408.5,102.5C 404.205,103.661 399.871,103.828 395.5,103C 394.812,86.5491 394.146,70.0491 393.5,53.5C 393.685,52.4163 394.018,51.4163 394.5,50.5 Z M 449.5,76.5 C 448.624,76.3691 447.957,76.7025 447.5,77.5C 448.347,78.8448 449.513,79.8448 451,80.5C 452.638,85.4348 453.971,90.4348 455,95.5C 456.675,96.5955 457.842,98.0955 458.5,100C 454.323,99.2691 450.156,99.4357 446,100.5C 444.312,97.7742 442.812,94.9408 441.5,92C 436.9,90.2338 432.233,90.0672 427.5,91.5C 426.019,94.407 424.685,97.407 423.5,100.5C 419.748,98.5084 415.915,98.1751 412,99.5C 411.333,97.5 411.333,95.5 412,93.5C 414.257,86.7726 417.257,80.4393 421,74.5C 423.997,67.5308 426.497,60.3641 428.5,53C 432.833,52.3333 437.167,52.3333 441.5,53C 445.469,60.3695 448.136,68.2028 449.5,76.5 Z M 432.5,77.5 C 433.776,78.3864 433.776,79.3864 432.5,80.5C 429.955,79.4508 429.955,78.4508 432.5,77.5 Z M 436.5,77.5 C 439.595,78.1187 439.929,79.1187 437.5,80.5C 436.614,79.675 436.281,78.675 436.5,77.5 Z"/></g>
<g><path style="opacity:0.522" fill="#928d8c" d="M 477.5,50.5 C 488.165,52.1607 495.165,58.1607 498.5,68.5C 497.252,70.4586 495.585,71.9586 493.5,73C 495.642,75.3951 495.475,77.8951 493,80.5C 492.309,78.1088 491.309,78.1088 490,80.5C 489.1,79.2298 487.934,78.2298 486.5,77.5C 491.852,74.5176 491.185,73.1843 484.5,73.5C 484.366,66.8456 481.033,64.6789 474.5,67C 469.678,73.4228 469.178,80.2562 473,87.5C 474.913,89.1869 477.08,89.6869 479.5,89C 483.989,84.5318 488.656,84.3652 493.5,88.5C 495.25,92.6758 494.25,96.0092 490.5,98.5C 489.571,99.6888 489.238,101.022 489.5,102.5C 484.896,101.706 480.396,101.706 476,102.5C 466.467,102.294 460.467,97.6273 458,88.5C 456.196,81.4774 456.196,74.4774 458,67.5C 461.455,62.8903 464.621,58.2236 467.5,53.5C 469.857,53.6633 472.19,53.4966 474.5,53C 476.119,52.7645 477.119,51.9311 477.5,50.5 Z M 469.5,54.5 C 473.243,54.4592 473.41,55.1259 470,56.5C 469.536,55.9056 469.369,55.2389 469.5,54.5 Z M 468.5,71.5 C 469.071,72.9733 469.071,74.64 468.5,76.5C 461.992,77.7418 461.992,78.4085 468.5,78.5C 468.104,81.4822 468.771,84.1489 470.5,86.5C 465.058,90.4518 462.724,88.7851 463.5,81.5C 462.5,81.5 461.5,81.5 460.5,81.5C 460.66,83.1992 460.494,84.8659 460,86.5C 458.649,83.3768 458.482,80.3768 459.5,77.5C 459.196,76.8501 458.863,76.1835 458.5,75.5C 459.53,75.4455 460.697,75.1122 462,74.5C 462.957,71.6212 462.457,69.1212 460.5,67C 461.167,66 461.833,65 462.5,64C 465.96,65.2428 467.96,63.9095 468.5,60C 468.43,59.2352 468.097,58.7352 467.5,58.5C 469.456,58.7415 471.456,58.0749 473.5,56.5C 473.611,55.8826 473.944,55.3826 474.5,55C 476.833,54.3333 479.167,54.3333 481.5,55C 479.437,56.5716 478.771,58.405 479.5,60.5C 481.756,59.5791 482.756,57.9124 482.5,55.5C 487.064,55.55 490.564,57.55 493,61.5C 493.163,63.676 493.996,65.5093 495.5,67C 492.511,67.3304 489.678,68.1638 487,69.5C 485.48,68.303 484.313,66.803 483.5,65C 480.167,64.6667 476.833,64.3333 473.5,64C 472.667,63.1667 471.833,62.3333 471,61.5C 470.313,63.5675 470.48,65.5675 471.5,67.5C 470.479,68.9014 469.479,70.2347 468.5,71.5 Z M 468.5,98.5 C 461.454,94.8322 462.121,92.9988 470.5,93C 471.815,91.6054 471.481,90.6054 469.5,90C 470,89.5 470.5,89 471,88.5C 472.409,89.7811 473.909,90.7811 475.5,91.5C 477.117,92.5893 477.95,94.256 478,96.5C 479.646,94.9452 479.979,93.2785 479,91.5C 480.512,90.7433 481.846,89.7433 483,88.5C 483.333,89.1667 483.667,89.8333 484,90.5C 484.196,88.7139 485.029,87.3805 486.5,86.5C 494.234,90.3029 494.234,94.3029 486.5,98.5C 485.692,96.5767 485.192,94.5767 485,92.5C 483.418,94.6237 483.251,96.7904 484.5,99C 483.584,99.3742 482.75,99.8742 482,100.5C 482.128,97.5144 482.128,94.5144 482,91.5C 481.246,94.6392 480.246,97.6392 479,100.5C 476.727,98.1084 474.56,98.1084 472.5,100.5C 470.974,100.006 469.641,99.339 468.5,98.5 Z M 461.5,89.5 C 463.086,89.6932 464.753,90.0266 466.5,90.5C 464.203,93.2896 462.536,92.9563 461.5,89.5 Z"/></g>
<g><path style="opacity:0.385" fill="#928d8c" d="M 516.5,50.5 C 522.214,51.2617 527.88,51.2617 533.5,50.5C 534.386,51.325 534.719,52.325 534.5,53.5C 533.127,53.3433 531.793,53.51 530.5,54C 532.9,54.1858 535.234,54.6858 537.5,55.5C 536.167,56.1667 534.833,56.8333 533.5,57.5C 536.122,60.7028 536.122,63.8695 533.5,67C 528.303,66.4369 523.303,64.9369 518.5,62.5C 514.393,63.3754 513.727,65.2087 516.5,68C 523.94,69.9716 530.773,73.1383 537,77.5C 543.427,89.837 539.927,98.337 526.5,103C 520.482,103.988 514.649,103.488 509,101.5C 505.994,104.285 503.494,103.952 501.5,100.5C 502.025,99.8076 502.692,99.3076 503.5,99C 501.32,96.5823 500.987,93.9156 502.5,91C 507.97,90.1488 513.303,90.6488 518.5,92.5C 521.45,91.3753 523.45,89.3753 524.5,86.5C 524.392,85.5581 524.059,84.7247 523.5,84C 515.525,83.1724 507.858,81.8391 500.5,80C 501.167,79.3333 501.833,78.6667 502.5,78C 497.616,68.3994 498.95,59.7328 506.5,52C 510.025,51.8213 513.359,51.3213 516.5,50.5 Z M 531.5,63.5 C 529.389,62.2584 527.389,62.2584 525.5,63.5C 522.538,62.9391 519.705,61.9391 517,60.5C 515.24,61.6301 513.407,62.6301 511.5,63.5C 513.435,64.213 513.768,65.213 512.5,66.5C 511.624,66.3691 510.957,66.7025 510.5,67.5C 511.614,68.7759 512.614,68.7759 513.5,67.5C 520.741,70.0817 527.741,73.415 534.5,77.5C 541.4,84.6282 541.066,91.4615 533.5,98C 530.5,99.5 527.5,101 524.5,102.5C 522.197,101.319 519.863,101.319 517.5,102.5C 513.243,101.488 509.243,100.154 505.5,98.5C 511.757,97.5346 512.09,95.368 506.5,92C 511.061,91.4598 515.394,92.2932 519.5,94.5C 521.817,92.684 523.984,90.684 526,88.5C 526.333,89.1667 526.667,89.8333 527,90.5C 528.009,88.9751 528.509,87.3084 528.5,85.5C 529.805,82.6203 528.805,81.1203 525.5,81C 526.823,81.8159 527.489,82.9826 527.5,84.5C 526.373,83.8783 525.373,83.045 524.5,82C 518.354,81.968 512.354,81.1347 506.5,79.5C 504.703,76.7209 504.203,73.7209 505,70.5C 506.757,69.8811 507.924,68.7144 508.5,67C 508.15,65.7425 507.483,65.4092 506.5,66C 504,67.1667 502.167,69 501,71.5C 500.262,67.7387 500.595,64.0721 502,60.5C 503.143,63.9153 504.81,64.2486 507,61.5C 507.14,58.9568 507.806,56.6234 509,54.5C 511.12,57.3861 513.287,57.7194 515.5,55.5C 514.335,54.4164 513.002,53.5831 511.5,53C 514.5,52.5 517.5,52 520.5,51.5C 524.59,52.3612 527.924,53.8612 530.5,56C 528.275,56.5611 526.275,57.5611 524.5,59C 526.891,60.6032 529.224,62.1032 531.5,63.5 Z M 504.5,56.5 C 505.465,57.7211 505.298,59.0544 504,60.5C 503.421,59.0715 503.588,57.7382 504.5,56.5 Z M 525.5,63.5 C 527.741,63.9539 529.741,63.9539 531.5,63.5C 532.167,63.5 532.833,63.5 533.5,63.5C 533.539,64.7562 533.039,65.7562 532,66.5C 529.706,65.5783 527.539,64.5783 525.5,63.5 Z M 505.5,93.5 C 504.711,93.2172 504.044,92.7172 503.5,92C 504.816,91.4719 505.483,91.9719 505.5,93.5 Z"/></g>
<g><path style="opacity:0.341" fill="#928d8c" d="M 473.5,56.5 C 476.85,55.1968 477.184,55.8635 474.5,58.5C 475.326,59.451 475.492,60.451 475,61.5C 473.731,60.0953 473.231,58.4286 473.5,56.5 Z"/></g>
<g><path style="opacity:0.507" fill="#928d8c" d="M 253.5,56.5 C 255.176,57.1834 255.843,58.5168 255.5,60.5C 254.325,60.719 253.325,60.3857 252.5,59.5C 253.127,58.5832 253.461,57.5832 253.5,56.5 Z"/></g>
<g><path style="opacity:0.427" fill="#928d8c" d="M 247.5,57.5 C 249.821,59.0897 250.821,61.4231 250.5,64.5C 248.692,64.5086 247.025,64.0086 245.5,63C 247.192,61.5993 247.859,59.7659 247.5,57.5 Z"/></g>
<g><path style="opacity:0.381" fill="#928d8c" d="M 436.5,57.5 C 439.059,57.3896 441.392,58.0562 443.5,59.5C 443,60.8805 442,61.5472 440.5,61.5C 438.87,60.5786 437.203,59.7453 435.5,59C 436.056,58.6174 436.389,58.1174 436.5,57.5 Z"/></g>
<g><path style="opacity:0.233" fill="#928d8c" d="M 484.5,58.5 C 488.276,58.4692 488.443,59.1359 485,60.5C 483.316,60.3166 483.15,59.6499 484.5,58.5 Z"/></g>
<g><path style="opacity:0.548" fill="#928d8c" d="M 239.5,61.5 C 241.539,62.911 242.539,64.911 242.5,67.5C 241.5,67.5 240.5,67.5 239.5,67.5C 239.5,65.5 239.5,63.5 239.5,61.5 Z"/></g>
<g><path style="opacity:0.305" fill="#928d8c" d="M 211.5,63.5 C 213.389,62.2584 215.389,62.2584 217.5,63.5C 215.741,63.9539 213.741,63.9539 211.5,63.5 Z"/></g>
<g><path style="opacity:0.305" fill="#928d8c" d="M 525.5,63.5 C 527.389,62.2584 529.389,62.2584 531.5,63.5C 529.741,63.9539 527.741,63.9539 525.5,63.5 Z"/></g>
<g><path style="opacity:0.554" fill="#928d8c" d="M 256.5,63.5 C 257.552,63.3505 258.552,63.5172 259.5,64C 258.213,65.4095 257.046,66.9095 256,68.5C 254.198,66.7271 254.365,65.0605 256.5,63.5 Z"/></g>
<g><path style="opacity:0.473" fill="#928d8c" d="M 245.5,64.5 C 247.898,65.8823 248.065,67.549 246,69.5C 244.372,68.0383 244.205,66.3717 245.5,64.5 Z"/></g>
<g><path style="opacity:0.433" fill="#928d8c" d="M 490.5,64.5 C 491.043,64.56 491.376,64.8933 491.5,65.5C 490.635,66.5827 489.635,66.7494 488.5,66C 489.416,65.7216 490.082,65.2216 490.5,64.5 Z"/></g>
<g><path style="opacity:0.173" fill="#928d8c" d="M 198.5,66.5 C 198.5,67.1667 198.833,67.5 199.5,67.5C 198.614,68.7759 197.614,68.7759 196.5,67.5C 196.957,66.7025 197.624,66.3691 198.5,66.5 Z"/></g>
<g><path style="opacity:0.419" fill="#928d8c" d="M 468.5,71.5 C 465,71.5046 463.5,69.8379 464,66.5C 466.391,67.39 467.891,69.0567 468.5,71.5 Z"/></g>
<g><path style="opacity:0.173" fill="#928d8c" d="M 512.5,66.5 C 512.5,67.1667 512.833,67.5 513.5,67.5C 512.614,68.7759 511.614,68.7759 510.5,67.5C 510.957,66.7025 511.624,66.3691 512.5,66.5 Z"/></g>
<g><path style="opacity:0.472" fill="#928d8c" d="M 236.5,67.5 C 240.006,68.1164 240.839,69.7831 239,72.5C 237.628,71.0899 236.795,69.4233 236.5,67.5 Z"/></g>
<g><path style="opacity:0.435" fill="#928d8c" d="M 262.5,68.5 C 264.028,68.5173 264.528,69.184 264,70.5C 262.887,72.3293 261.387,73.1626 259.5,73C 259.043,72.586 258.709,72.086 258.5,71.5C 259.901,70.4793 261.235,69.4793 262.5,68.5 Z"/></g>
<g><path style="opacity:0.267" fill="#928d8c" d="M 199.5,72.5 C 201.337,72.6395 201.67,73.3061 200.5,74.5C 199.702,74.0431 199.369,73.3764 199.5,72.5 Z"/></g>
<g><path style="opacity:0.267" fill="#928d8c" d="M 513.5,72.5 C 515.337,72.6395 515.67,73.3061 514.5,74.5C 513.702,74.0431 513.369,73.3764 513.5,72.5 Z"/></g>
<g><path style="opacity:0.498" fill="#928d8c" d="M 431.5,74.5 C 438.175,73.186 441.509,75.8527 441.5,82.5C 439.046,82.3205 436.879,82.9872 435,84.5C 431.917,83.6203 429.417,81.9536 427.5,79.5C 428.508,77.5008 429.841,75.8342 431.5,74.5 Z M 432.5,77.5 C 429.955,78.4508 429.955,79.4508 432.5,80.5C 433.776,79.3864 433.776,78.3864 432.5,77.5 Z M 436.5,77.5 C 436.281,78.675 436.614,79.675 437.5,80.5C 439.929,79.1187 439.595,78.1187 436.5,77.5 Z"/></g>
<g><path style="opacity:0.555" fill="#928d8c" d="M 238.5,76.5 C 239.75,76.5774 240.583,77.244 241,78.5C 243,77.1667 245,77.1667 247,78.5C 247.689,77.6433 248.522,76.9767 249.5,76.5C 252.375,78.0783 255.375,79.4116 258.5,80.5C 254.844,84.6424 251.51,84.309 248.5,79.5C 248.446,80.5301 248.112,81.6967 247.5,83C 241.81,84.4701 238.81,82.3034 238.5,76.5 Z"/></g>
<g><path style="opacity:0.496" fill="#928d8c" d="M 262.5,77.5 C 264.801,78.0604 267.134,78.5604 269.5,79C 267.781,80.0569 265.947,80.8903 264,81.5C 262.812,80.4366 262.312,79.1033 262.5,77.5 Z"/></g>
<g><path style="opacity:0.173" fill="#928d8c" d="M 459.5,77.5 C 460.675,77.281 461.675,77.6143 462.5,78.5C 461.14,79.6653 460.14,79.332 459.5,77.5 Z"/></g>
<g><path style="opacity:0.274" fill="#928d8c" d="M 214.5,85.5 C 214.5,84.8333 214.167,84.5 213.5,84.5C 213.489,82.9826 212.823,81.8159 211.5,81C 214.805,81.1203 215.805,82.6203 214.5,85.5 Z"/></g>
<g><path style="opacity:0.274" fill="#928d8c" d="M 528.5,85.5 C 528.5,84.8333 528.167,84.5 527.5,84.5C 527.489,82.9826 526.823,81.8159 525.5,81C 528.805,81.1203 529.805,82.6203 528.5,85.5 Z"/></g>
<g><path style="opacity:0.599" fill="#928d8c" d="M 311.5,82.5 C 312.376,82.3691 313.043,82.7025 313.5,83.5C 311.993,86.7938 312.826,87.4604 316,85.5C 319.142,85.9751 320.975,87.8085 321.5,91C 318.022,96.8209 314.189,96.9875 310,91.5C 309.404,88.3137 309.904,85.3137 311.5,82.5 Z"/></g>
<g><path style="opacity:0.518" fill="#928d8c" d="M 289.5,99.5 C 288.571,98.6851 287.571,97.8518 286.5,97C 286.904,94.9303 286.904,92.7637 286.5,90.5C 288.764,84.4622 292.264,83.4622 297,87.5C 298.302,93.8993 295.802,97.8993 289.5,99.5 Z"/></g>
<g><path style="opacity:0.511" fill="#928d8c" d="M 248.5,87.5 C 248.167,86.1667 247.833,86.1667 247.5,87.5C 246.127,87.6567 244.793,87.49 243.5,87C 247.039,85.4961 250.705,85.1628 254.5,86C 252.75,87.3186 250.75,87.8186 248.5,87.5 Z"/></g>
<g><path style="opacity:0.39" fill="#928d8c" d="M 418.5,85.5 C 419.478,85.811 420.145,86.4777 420.5,87.5C 419.923,89.5499 418.59,90.5499 416.5,90.5C 416.392,88.4862 417.058,86.8195 418.5,85.5 Z"/></g>
<g><path style="opacity:0.472" fill="#928d8c" d="M 260.5,86.5 C 262.544,87.0312 264.211,88.1978 265.5,90C 262.074,91.2381 260.408,90.0714 260.5,86.5 Z"/></g>
<g><path style="opacity:0.438" fill="#928d8c" d="M 247.5,87.5 C 247.833,87.5 248.167,87.5 248.5,87.5C 249.777,89.9861 249.111,90.6528 246.5,89.5C 246.863,88.8165 247.196,88.1499 247.5,87.5 Z"/></g>
<g><path style="opacity:0.611" fill="#928d8c" d="M 237.5,90.5 C 238.675,90.281 239.675,90.6143 240.5,91.5C 238.948,92.7979 237.948,92.4646 237.5,90.5 Z"/></g>
<g><path style="opacity:0.343" fill="#928d8c" d="M 475.5,91.5 C 475.769,93.4286 475.269,95.0953 474,96.5C 473.401,94.4652 473.901,92.7985 475.5,91.5 Z"/></g>
<g><path style="opacity:0.456" fill="#928d8c" d="M 248.5,94.5 C 250.972,95.7487 251.139,97.4153 249,99.5C 247.212,97.9769 247.045,96.3102 248.5,94.5 Z"/></g>
<g><path style="opacity:0.646" fill="#928d8c" d="M 468.5,98.5 C 467.859,97.5178 467.193,96.5178 466.5,95.5C 468.886,94.4705 470.886,95.1372 472.5,97.5C 471.311,98.4287 469.978,98.762 468.5,98.5 Z"/></g>
<g><path style="opacity:0.727" fill="#928d8c" d="M 30.5,102.5 C 31.4959,102.414 32.3292,102.748 33,103.5C 33.6833,108.816 34.1833,114.15 34.5,119.5C 34.9137,157.185 34.4137,194.852 33,232.5C 36.913,198.198 40.413,163.865 43.5,129.5C 44.8633,136.796 46.0299,144.129 47,151.5C 49.4509,136.128 52.1175,120.795 55,105.5C 55.6667,104.167 56.3333,104.167 57,105.5C 59.3714,124.814 61.3714,144.147 63,163.5C 63.7242,151.809 64.7242,140.143 66,128.5C 66.7086,122.999 68.042,117.665 70,112.5C 70.9147,113.328 71.5814,114.328 72,115.5C 71.6728,140.796 73.1728,165.963 76.5,191C 75.9563,207.352 74.9563,223.685 73.5,240C 73.8333,240.833 74.1667,241.667 74.5,242.5C 80.6423,246.811 87.1423,250.478 94,253.5C 96.8813,248.715 100.881,247.049 106,248.5C 106.436,252.053 108.436,254.053 112,254.5C 113.115,253 113.948,251.333 114.5,249.5C 115.667,249.167 116.833,248.833 118,248.5C 121.436,250.218 125.102,251.551 129,252.5C 130.853,250.813 133.019,249.813 135.5,249.5C 138.331,249.328 139.998,250.661 140.5,253.5C 151.157,254.115 156.99,259.782 158,270.5C 159.501,281.987 155.668,291.154 146.5,298C 143.576,298.988 140.576,299.654 137.5,300C 120.545,301.229 103.712,300.395 87,297.5C 82.6116,298.129 78.4449,299.463 74.5,301.5C 65.7083,301.709 56.875,301.376 48,300.5C 36.009,305.254 25.3423,303.254 16,294.5C 13.9422,284.343 12.7755,274.176 12.5,264C 12.4017,258.955 14.235,254.788 18,251.5C 19.3078,201.565 23.4745,151.898 30.5,102.5 Z M 55.5,118.5 C 57.1915,138.738 59.1915,159.071 61.5,179.5C 60.2331,199.546 58.2331,219.546 55.5,239.5C 56.8812,243.885 56.7145,248.219 55,252.5C 52.2809,251.556 49.4475,251.223 46.5,251.5C 46.6261,249.8 47.2927,248.3 48.5,247C 48.2409,245.739 47.5742,244.739 46.5,244C 48.9154,242.526 48.9154,240.86 46.5,239C 47.2718,237.779 48.2718,236.779 49.5,236C 48.9747,235.308 48.3081,234.808 47.5,234.5C 46.4301,214.502 46.4301,194.502 47.5,174.5C 48.5,174.5 49.5,174.5 50.5,174.5C 50.6399,172.876 49.9733,171.71 48.5,171C 49.3081,170.692 49.9747,170.192 50.5,169.5C 50.8355,167.091 50.1688,164.757 48.5,162.5C 50.403,147.749 52.7363,133.083 55.5,118.5 Z M 30.5,120.5 C 30.4675,137.67 30.8009,155.004 31.5,172.5C 30.917,179.827 30.417,187.161 30,194.5C 29.6857,196.869 28.8524,199.036 27.5,201C 28.0223,201.95 28.689,202.784 29.5,203.5C 24.4552,203.452 24.2885,204.786 29,207.5C 29.4999,223.497 29.6666,239.497 29.5,255.5C 26.8806,255.232 24.3806,255.565 22,256.5C 21.4357,253.845 20.9357,251.179 20.5,248.5C 22.1512,205.701 25.4845,163.034 30.5,120.5 Z M 69.5,126.5 C 69.2163,148.079 70.5497,169.746 73.5,191.5C 72.9012,196.82 72.5679,202.153 72.5,207.5C 67.5786,207.135 67.2453,208.135 71.5,210.5C 72.6978,223.547 72.1978,236.547 70,249.5C 67.0558,253.114 63.2225,254.447 58.5,253.5C 61.3238,211.074 64.9904,168.741 69.5,126.5 Z M 43.5,156.5 C 44.8123,162.955 45.4789,169.622 45.5,176.5C 43.8012,201.136 43.1346,225.802 43.5,250.5C 40.7623,250.851 38.0956,251.518 35.5,252.5C 34.404,246.172 34.404,239.839 35.5,233.5C 37.1992,233.66 38.8659,233.494 40.5,233C 39.1667,231.667 37.8333,230.333 36.5,229C 37.3567,228.311 38.0233,227.478 38.5,226.5C 37.0314,224.808 36.3647,222.808 36.5,220.5C 39.3281,199.21 41.6614,177.877 43.5,156.5 Z M 79.5,249.5 C 77.1727,249.753 75.1727,249.086 73.5,247.5C 75.7471,246.935 77.7471,247.601 79.5,249.5 Z M 102.5,250.5 C 103.97,253.557 103.303,254.057 100.5,252C 101.416,251.722 102.082,251.222 102.5,250.5 Z M 81.5,251.5 C 86.8362,256.069 93.0028,257.403 100,255.5C 103.774,256.569 107.607,257.236 111.5,257.5C 111.051,259.977 111.717,261.977 113.5,263.5C 114.7,259.351 116.2,255.351 118,251.5C 119.236,252.399 120.07,253.566 120.5,255C 119.633,258.105 119.299,261.272 119.5,264.5C 120.5,264.5 121.5,264.5 122.5,264.5C 122.513,260.663 123.68,257.33 126,254.5C 127.205,255.071 128.372,255.738 129.5,256.5C 128.294,258.516 128.294,260.516 129.5,262.5C 131.5,259.167 133.5,255.833 135.5,252.5C 137.024,256.283 138.024,260.283 138.5,264.5C 140.456,262.649 141.456,260.316 141.5,257.5C 147.244,256.872 151.077,259.206 153,264.5C 158.068,276.953 155.235,287.12 144.5,295C 142.212,295.822 139.878,296.489 137.5,297C 124.833,297.667 112.167,297.667 99.5,297C 95.4294,296.476 91.4294,295.642 87.5,294.5C 76.1675,297.645 64.6675,299.312 53,299.5C 49.6018,297.601 46.1018,296.935 42.5,297.5C 42.7093,298.086 43.0426,298.586 43.5,299C 27.1162,303.572 18.1162,297.572 16.5,281C 16.7634,278.379 17.43,275.879 18.5,273.5C 17.0972,270.291 16.0972,266.958 15.5,263.5C 15.6472,260.89 16.4806,258.556 18,256.5C 19.7058,257.308 20.5391,258.641 20.5,260.5C 23.0284,259.989 25.5284,259.322 28,258.5C 31.2336,260.364 33.7336,259.698 35.5,256.5C 37.3115,255.261 39.3115,254.594 41.5,254.5C 44.1912,255.627 46.8578,255.627 49.5,254.5C 51.571,255.618 53.7377,256.618 56,257.5C 59.7938,256.77 63.6272,256.27 67.5,256C 70.7328,252.543 74.5661,251.71 79,253.5C 80.301,253.361 81.1344,252.695 81.5,251.5 Z M 70.5,274.5 C 68.1996,274.478 67.033,273.478 67,271.5C 68.5185,272.163 69.6851,273.163 70.5,274.5 Z M 61.5,277.5 C 65.7863,276.099 69.7863,276.932 73.5,280C 67.7862,283.155 62.1195,283.155 56.5,280C 57.9308,279.535 59.0975,278.701 60,277.5C 60.1118,280.447 61.6118,281.78 64.5,281.5C 64.9118,279.027 63.9118,277.694 61.5,277.5 Z M 31.5,279.5 C 34.9085,277.04 38.5752,276.874 42.5,279C 40.9242,281.077 38.9242,282.577 36.5,283.5C 36.0941,282.443 36.0941,281.109 36.5,279.5C 34.8333,279.5 33.1667,279.5 31.5,279.5 Z M 31.5,279.5 C 30.7961,281.344 29.4628,281.844 27.5,281C 28.745,280.209 30.0783,279.709 31.5,279.5 Z M 74.5,287.5 C 70.2312,287.076 65.8978,286.909 61.5,287C 60.3279,286.581 59.3279,285.915 58.5,285C 63.425,285.096 68.425,284.596 73.5,283.5C 74.1667,283.667 74.8333,283.833 75.5,284C 74.6634,285.011 74.33,286.178 74.5,287.5 Z"/></g>
<g><path style="opacity:0.711" fill="#928d8c" d="M 195.5,108.5 C 200.267,108.191 204.934,108.691 209.5,110C 212.98,112.646 216.314,115.479 219.5,118.5C 225.054,118.504 230.721,118.337 236.5,118C 240.581,113.441 244.581,113.441 248.5,118C 256.511,118.343 264.511,118.843 272.5,119.5C 278.146,118.176 283.812,116.842 289.5,115.5C 296.862,116.696 301.029,121.03 302,128.5C 311.197,138.893 317.197,150.893 320,164.5C 320.799,171.883 320.632,179.217 319.5,186.5C 323.175,192.494 321.842,196.827 315.5,199.5C 312.72,204.27 310.387,209.27 308.5,214.5C 317.548,215.045 321.048,219.711 319,228.5C 310.482,235.782 303.482,234.448 298,224.5C 295.273,227.731 292.106,230.397 288.5,232.5C 296.395,232.611 299.895,236.611 299,244.5C 301.106,246.377 302.439,248.71 303,251.5C 304.197,244.138 308.364,239.472 315.5,237.5C 312.899,244.964 310.232,252.464 307.5,260C 313.612,271.724 319.612,283.558 325.5,295.5C 328.037,295.305 330.703,295.639 333.5,296.5C 332.399,272.245 335.065,248.412 341.5,225C 337.707,190.518 337.541,156.018 341,121.5C 341.706,117.675 342.872,114.008 344.5,110.5C 345.365,109.417 346.365,109.251 347.5,110C 357.87,116.033 366.704,123.867 374,133.5C 377.914,126.004 382.08,118.671 386.5,111.5C 389.228,110.06 391.395,110.726 393,113.5C 401.966,134.68 410.633,156.013 419,177.5C 423.605,193.148 428.105,208.815 432.5,224.5C 441.308,204.881 451.142,185.881 462,167.5C 468.1,160.311 474.433,153.311 481,146.5C 485.377,135.472 491.377,125.472 499,116.5C 501.257,119.438 502.424,122.771 502.5,126.5C 506.021,126.17 509.021,124.67 511.5,122C 513.345,120.872 515.345,120.372 517.5,120.5C 517.622,125.2 518.955,129.533 521.5,133.5C 526.601,128.891 532.101,124.891 538,121.5C 538.333,121.833 538.667,122.167 539,122.5C 543.2,136.506 545.2,150.839 545,165.5C 545.667,176.167 545.667,186.833 545,197.5C 544.259,203.132 542.593,208.465 540,213.5C 539.655,219.847 539.155,226.18 538.5,232.5C 538.711,234.686 539.044,236.853 539.5,239C 538.09,245.422 537.256,251.922 537,258.5C 533.162,274.515 529.162,290.515 525,306.5C 524.059,308.061 522.892,309.395 521.5,310.5C 520.119,310 519.453,309 519.5,307.5C 524.069,285.353 526.902,263.02 528,240.5C 520.304,258.949 514.304,277.949 510,297.5C 507.991,303.506 505.491,309.173 502.5,314.5C 501.304,313.441 500.637,312.107 500.5,310.5C 502.689,300.422 504.855,290.422 507,280.5C 502.573,289.688 497.907,298.688 493,307.5C 490.496,311.673 488.829,311.34 488,306.5C 486.25,310.473 484.75,310.473 483.5,306.5C 494.684,273.076 501.184,238.743 503,203.5C 503.83,197.804 503.663,192.137 502.5,186.5C 488.375,199.62 475.708,213.953 464.5,229.5C 463.184,238.442 461.017,247.442 458,256.5C 457.87,260.111 457.703,263.611 457.5,267C 460.078,267.888 462.745,268.388 465.5,268.5C 466.693,274.328 468.027,280.328 469.5,286.5C 468.325,286.281 467.325,286.614 466.5,287.5C 467.246,288.736 467.579,290.07 467.5,291.5C 461.465,290.952 458.965,287.619 460,281.5C 458.907,279.651 457.574,277.984 456,276.5C 455.163,278.351 454.329,280.184 453.5,282C 455.068,284.058 456.402,286.225 457.5,288.5C 455.347,290.794 453.68,293.46 452.5,296.5C 451.311,297.429 449.978,297.762 448.5,297.5C 448.387,294.951 449.054,292.618 450.5,290.5C 448.999,288.043 447.332,288.043 445.5,290.5C 446.024,297.776 443.024,303.443 436.5,307.5C 436.167,306.667 435.833,305.833 435.5,305C 436.022,302.79 436.688,300.623 437.5,298.5C 436.204,296.022 434.204,294.855 431.5,295C 430.978,295.561 430.645,296.228 430.5,297C 432.227,301.412 433.56,305.912 434.5,310.5C 433.178,310.67 432.011,310.337 431,309.5C 428.394,304.565 425.394,299.898 422,295.5C 421.28,293.888 421.446,292.388 422.5,291C 421.333,289.833 420.167,288.667 419,287.5C 418.667,289.833 418.333,292.167 418,294.5C 410.39,288.853 410.223,283.353 417.5,278C 415.824,274.324 413.824,270.824 411.5,267.5C 412.877,265.711 413.877,263.711 414.5,261.5C 409.029,246.263 402.862,231.263 396,216.5C 395,215.833 394,215.167 393,214.5C 390.559,232.97 388.725,251.47 387.5,270C 388.022,270.561 388.355,271.228 388.5,272C 387.826,283.498 386.993,294.998 386,306.5C 384.844,307.993 384.01,307.826 383.5,306C 381.078,296.005 379.911,285.838 380,275.5C 378.394,253.627 379.728,231.96 384,210.5C 384.748,206.491 386.248,202.824 388.5,199.5C 385.914,192.652 382.081,186.652 377,181.5C 363.765,220.028 360.932,259.361 368.5,299.5C 368.167,301.5 367.833,303.5 367.5,305.5C 366.522,305.023 365.689,304.357 365,303.5C 358.82,284.344 356.32,264.677 357.5,244.5C 357.45,234.133 357.95,223.8 359,213.5C 361.297,199.683 363.964,186.016 367,172.5C 360.942,186.507 355.775,200.84 351.5,215.5C 352.314,233.149 352.48,250.816 352,268.5C 352.282,280.193 353.782,291.693 356.5,303C 355.746,306.088 354.58,306.254 353,303.5C 347.303,286.983 344.303,269.983 344,252.5C 342.368,257.03 341.368,261.696 341,266.5C 339.991,278.159 339.157,289.826 338.5,301.5C 335.275,301.092 332.275,300.092 329.5,298.5C 327.527,299.331 325.527,299.498 323.5,299C 321.933,297.924 320.266,297.091 318.5,296.5C 314.876,297.524 311.376,298.857 308,300.5C 306.01,299.182 304.01,297.848 302,296.5C 300.493,297.505 299.327,298.838 298.5,300.5C 295.868,296.957 292.868,296.624 289.5,299.5C 284.525,297.872 279.858,298.539 275.5,301.5C 272.265,300.267 269.265,298.601 266.5,296.5C 261.489,298.81 261.156,297.81 265.5,293.5C 264.362,290.087 263.029,286.754 261.5,283.5C 255.017,282.18 251.517,278.18 251,271.5C 250.075,270.953 249.242,270.287 248.5,269.5C 246.904,264.894 246.07,260.228 246,255.5C 244.279,252.719 241.779,251.052 238.5,250.5C 235.558,244.707 231.058,241.04 225,239.5C 226.933,245.699 225.267,250.699 220,254.5C 217.76,261.21 219.76,265.876 226,268.5C 227.969,272.649 227.635,276.649 225,280.5C 223.89,282.037 222.39,282.703 220.5,282.5C 220.5,286.833 220.5,291.167 220.5,295.5C 224.387,294.945 227.387,296.279 229.5,299.5C 229,299.833 228.5,300.167 228,300.5C 226.092,299.546 224.092,298.879 222,298.5C 219.133,299.646 216.3,299.646 213.5,298.5C 210.833,299.5 208.167,300.5 205.5,301.5C 201.217,298.43 196.55,297.764 191.5,299.5C 190.614,300.325 190.281,301.325 190.5,302.5C 186.63,299.735 182.297,297.735 177.5,296.5C 174.301,296.9 171.301,297.9 168.5,299.5C 167.155,298.653 166.155,297.487 165.5,296C 164.062,295.781 162.729,295.281 161.5,294.5C 164.034,293.223 166.534,293.223 169,294.5C 170.529,286.295 168.863,278.962 164,272.5C 163.374,270.287 163.541,268.12 164.5,266C 159.77,257.733 160.77,250.233 167.5,243.5C 164.873,235.58 165.207,227.746 168.5,220C 165.995,216.461 163.829,212.628 162,208.5C 159.51,200.409 160.51,192.742 165,185.5C 167.15,182.22 169.316,179.054 171.5,176C 170.968,170.108 170.135,164.275 169,158.5C 161.926,155.934 158.76,150.934 159.5,143.5C 159.069,137.627 160.736,132.46 164.5,128C 166.345,126.872 168.345,126.372 170.5,126.5C 170.974,118.562 175.308,114.729 183.5,115C 187.434,112.536 191.434,110.369 195.5,108.5 Z M 201.5,110.5 C 207.436,111.559 212.269,114.559 216,119.5C 218.535,125.408 221.702,130.908 225.5,136C 229.891,139.706 234.891,141.372 240.5,141C 239.346,140.086 239.513,139.253 241,138.5C 247.666,138.429 253.5,135.929 258.5,131C 266.132,127.34 273.798,123.674 281.5,120C 288.966,116.78 294.632,118.613 298.5,125.5C 295.91,125.165 293.577,123.665 291.5,121C 286.172,120.814 281.172,122.148 276.5,125C 266.622,135.11 254.955,142.443 241.5,147C 230.667,147.832 221.834,143.998 215,135.5C 209.785,129.062 205.618,122.062 202.5,114.5C 185.744,116.749 185.41,115.415 201.5,110.5 Z M 346.5,112.5 C 356.912,118.743 365.578,126.91 372.5,137C 371.624,138.586 370.624,140.086 369.5,141.5C 364.514,137.845 359.847,133.845 355.5,129.5C 352.871,127.95 351.037,128.616 350,131.5C 347.633,149.468 346.633,167.468 347,185.5C 345.455,184.179 344.289,184.512 343.5,186.5C 344.5,187.167 345.5,187.833 346.5,188.5C 343.82,190.411 343.987,192.078 347,193.5C 347.311,195.556 347.811,197.556 348.5,199.5C 346.765,204.538 344.932,209.538 343,214.5C 341.545,188.182 341.211,161.848 342,135.5C 342.858,127.682 344.358,120.016 346.5,112.5 Z M 371.5,146.5 C 375.725,135.039 381.725,124.706 389.5,115.5C 391.835,118.166 393.669,121.166 395,124.5C 398.559,134.616 402.392,144.616 406.5,154.5C 406.392,155.442 406.059,156.275 405.5,157C 408.992,160.301 410.659,164.468 410.5,169.5C 411.5,169.5 412.5,169.5 413.5,169.5C 414.574,173.629 415.574,177.796 416.5,182C 416.415,183.107 416.081,184.107 415.5,185C 416.833,186 418.167,187 419.5,188C 418.376,188.249 417.376,188.749 416.5,189.5C 418.342,190.842 419.842,192.509 421,194.5C 423.012,202.217 425.179,209.884 427.5,217.5C 427.112,219.641 427.112,221.641 427.5,223.5C 429.544,225.068 429.878,226.902 428.5,229C 430.525,232.25 432.025,235.75 433,239.5C 434.362,240.925 435.862,241.758 437.5,242C 434.146,242.455 430.813,242.955 427.5,243.5C 424.882,231.803 422.049,220.137 419,208.5C 409.459,180.043 399.626,151.709 389.5,123.5C 383.683,130.007 379.016,137.341 375.5,145.5C 374.311,146.429 372.978,146.762 371.5,146.5 Z M 241.5,117.5 C 242.239,117.369 242.906,117.536 243.5,118C 242.663,119.011 242.33,120.178 242.5,121.5C 244.06,121.481 245.56,121.148 247,120.5C 254.798,121.287 262.631,121.787 270.5,122C 261.617,126.292 252.95,130.959 244.5,136C 239.382,136.888 234.382,136.555 229.5,135C 225.082,130.988 222.082,126.155 220.5,120.5C 227.2,120.83 233.866,120.497 240.5,119.5C 240.863,118.817 241.196,118.15 241.5,117.5 Z M 180.5,260.5 C 177.383,260.358 174.883,259.024 173,256.5C 172.587,250.254 171.254,244.254 169,238.5C 167.423,232.06 168.756,226.393 173,221.5C 176.559,225.716 180.059,229.883 183.5,234C 185.473,234.538 186.473,233.704 186.5,231.5C 185.318,222.469 181.484,214.802 175,208.5C 173.978,202.881 173.145,197.214 172.5,191.5C 171.614,192.325 171.281,193.325 171.5,194.5C 170.5,194.5 169.5,194.5 168.5,194.5C 168.457,197.91 168.957,201.243 170,204.5C 173.676,211.863 177.843,218.863 182.5,225.5C 182.333,225.833 182.167,226.167 182,226.5C 176.721,221.221 171.387,215.887 166,210.5C 161.941,199.655 163.941,189.988 172,181.5C 173.306,189.248 174.14,188.914 174.5,180.5C 173.777,171.824 172.943,163.157 172,154.5C 165.25,153.875 162.083,149.875 162.5,142.5C 162.244,138.877 163.077,135.544 165,132.5C 166.264,130.393 168.097,129.393 170.5,129.5C 170.512,134.779 169.512,139.779 167.5,144.5C 169.045,145.452 170.712,145.785 172.5,145.5C 172.238,137.78 172.738,130.113 174,122.5C 176.648,119.137 180.148,117.803 184.5,118.5C 189.74,119.442 194.907,119.442 200,118.5C 205.369,130.093 213.202,139.593 223.5,147C 229.488,150.151 235.821,151.151 242.5,150C 255.41,145.545 266.743,138.545 276.5,129C 279.673,126.913 283.006,125.079 286.5,123.5C 294.488,126.428 300.988,131.428 306,138.5C 312.847,149.207 317.014,160.874 318.5,173.5C 316.754,191.658 309.587,207.325 297,220.5C 291.443,225.691 285.61,230.524 279.5,235C 270.83,236.834 262.163,238.668 253.5,240.5C 249.793,239.816 246.126,239.316 242.5,239C 241.075,240.714 241.408,242.047 243.5,243C 243.038,244.722 242.872,246.555 243,248.5C 239.14,247.307 236.64,244.807 235.5,241C 236.793,240.51 238.127,240.343 239.5,240.5C 239.5,239.5 239.5,238.5 239.5,237.5C 219.361,237.851 199.194,237.851 179,237.5C 178.833,237.833 178.667,238.167 178.5,238.5C 186.529,238.431 194.529,239.431 202.5,241.5C 206.737,241.65 211.07,241.316 215.5,240.5C 216.497,248.138 216.831,255.804 216.5,263.5C 210.118,263.077 203.785,262.244 197.5,261C 197.833,260.667 198.167,260.333 198.5,260C 196.419,254.943 194.586,249.776 193,244.5C 192.086,250.281 192.919,255.781 195.5,261C 195.167,261.167 194.833,261.333 194.5,261.5C 191.645,257.27 189.979,252.603 189.5,247.5C 188.5,247.5 187.5,247.5 186.5,247.5C 187.815,249.823 187.815,252.157 186.5,254.5C 186.766,256.66 187.766,258.326 189.5,259.5C 187.977,261.283 185.977,261.949 183.5,261.5C 183.813,258.753 183.48,256.086 182.5,253.5C 181.914,253.709 181.414,254.043 181,254.5C 180.505,256.473 180.338,258.473 180.5,260.5 Z M 497.5,122.5 C 498.75,122.577 499.583,123.244 500,124.5C 500.499,129.664 501.999,134.497 504.5,139C 503.57,140.194 502.903,141.527 502.5,143C 506.135,145.895 506.469,149.228 503.5,153C 504.448,153.483 505.448,153.649 506.5,153.5C 506.284,157.059 506.618,160.559 507.5,164C 507.046,165.622 506.046,166.788 504.5,167.5C 502.065,157.625 500.232,147.625 499,137.5C 498.598,136.128 498.098,134.795 497.5,133.5C 496.998,132.479 496.332,132.312 495.5,133C 485.668,146.467 478.502,161.3 474,177.5C 473.075,176.953 472.242,176.287 471.5,175.5C 478.29,156.92 486.957,139.253 497.5,122.5 Z M 513.5,124.5 C 514.497,124.47 515.164,124.97 515.5,126C 518.184,134.358 520.85,142.691 523.5,151C 522.953,151.925 522.287,152.758 521.5,153.5C 519.11,147.172 516.61,140.839 514,134.5C 513.586,134.043 513.086,133.709 512.5,133.5C 510.228,134.441 508.228,135.774 506.5,137.5C 505.682,135.892 505.015,134.225 504.5,132.5C 506.968,129.121 509.968,126.454 513.5,124.5 Z M 540.5,203.5 C 540.804,185.807 540.304,168.141 539,150.5C 538,147.36 535.833,146.027 532.5,146.5C 532.884,144.335 532.217,142.668 530.5,141.5C 528.247,142.253 526.413,143.586 525,145.5C 521.23,140.701 521.73,136.534 526.5,133C 529.601,131.034 532.768,129.2 536,127.5C 536.945,127.905 537.612,128.572 538,129.5C 540.454,144.44 542.287,159.44 543.5,174.5C 543.014,184.347 542.014,194.014 540.5,203.5 Z M 387.5,130.5 C 393.88,142.14 398.38,154.474 401,167.5C 394.694,158.36 388.194,149.36 381.5,140.5C 383.511,137.139 385.511,133.806 387.5,130.5 Z M 353.5,133.5 C 355.255,134.072 356.922,134.906 358.5,136C 361.946,139.069 365.279,142.235 368.5,145.5C 362.673,160.49 356.839,175.49 351,190.5C 348.449,171.32 349.282,152.32 353.5,133.5 Z M 487.5,151.5 C 489.637,146.563 492.304,141.896 495.5,137.5C 497.955,143.303 496.289,147.303 490.5,149.5C 491.855,150.675 491.688,151.675 490,152.5C 489.329,151.748 488.496,151.414 487.5,151.5 Z M 511.5,137.5 C 513.377,138.659 513.877,140.326 513,142.5C 511.045,143.453 509.378,144.787 508,146.5C 506.98,142.553 508.147,139.553 511.5,137.5 Z M 379.5,144.5 C 396.818,163.123 408.985,184.789 416,209.5C 417.652,214.099 418.652,218.765 419,223.5C 417.667,222.167 416.333,220.833 415,219.5C 406.279,194.044 393.446,171.044 376.5,150.5C 377.129,148.259 378.129,146.259 379.5,144.5 Z M 513.5,145.5 C 515.982,147.102 516.815,149.435 516,152.5C 514.703,151.216 513.536,151.383 512.5,153C 512.833,153.333 513.167,153.667 513.5,154C 509.505,156.349 508.005,155.182 509,150.5C 510.707,148.963 512.207,147.296 513.5,145.5 Z M 528.5,145.5 C 529.267,146.172 529.934,147.005 530.5,148C 524.833,151.505 524.166,150.672 528.5,145.5 Z M 371.5,146.5 C 371.511,148.017 372.177,149.184 373.5,150C 364.922,169.279 357.089,189.779 350,211.5C 348.253,217.399 347.087,223.399 346.5,229.5C 345.5,229.5 344.5,229.5 343.5,229.5C 344.875,220.331 347.042,211.331 350,202.5C 356.573,183.482 363.74,164.816 371.5,146.5 Z M 496.5,149.5 C 497.693,149.97 498.36,150.97 498.5,152.5C 498.333,153.5 498.167,154.5 498,155.5C 490.595,162.235 483.928,169.568 478,177.5C 478.968,171.75 480.468,166.084 482.5,160.5C 483.873,160.657 485.207,160.49 486.5,160C 490.065,156.604 493.398,153.104 496.5,149.5 Z M 533.5,149.5 C 534.586,149.62 535.253,150.287 535.5,151.5C 539.216,188.251 538.383,224.918 533,261.5C 531.933,260.809 530.766,260.309 529.5,260C 530.428,259.612 531.095,258.945 531.5,258C 531.006,256.538 530.673,255.038 530.5,253.5C 531.595,241.172 532.595,228.838 533.5,216.5C 532.028,197.75 531.361,178.75 531.5,159.5C 527.276,160.522 523.609,162.689 520.5,166C 518.067,167.13 515.734,168.296 513.5,169.5C 513.256,172.263 511.923,174.429 509.5,176C 503.5,181.333 497.5,186.667 491.5,192C 490.552,192.483 489.552,192.649 488.5,192.5C 483.416,200.781 477.249,208.448 470,215.5C 469.586,215.043 469.086,214.709 468.5,214.5C 463.014,225.209 456.347,235.375 448.5,245C 445.262,245.816 443.762,244.65 444,241.5C 455.283,225.883 466.95,210.549 479,195.5C 490.644,185.579 501.811,175.079 512.5,164C 519.403,158.913 526.403,154.08 533.5,149.5 Z M 203.5,153.5 C 204.289,153.783 204.956,154.283 205.5,155C 204.184,155.528 203.517,155.028 203.5,153.5 Z M 374.5,154.5 C 390.04,171.238 401.206,190.571 408,212.5C 406.333,210.833 404.667,209.167 403,207.5C 396.467,190.484 387.634,174.818 376.5,160.5C 375.205,159.902 373.872,159.402 372.5,159C 373.582,157.67 374.249,156.17 374.5,154.5 Z M 475.5,157.5 C 472.512,163.96 470.012,170.627 468,177.5C 460.903,185.492 454.57,194.825 449,205.5C 447.166,206.696 445.333,207.529 443.5,208C 449.698,195.1 456.532,182.6 464,170.5C 466.955,165.379 470.789,161.045 475.5,157.5 Z M 498.5,158.5 C 499.971,161.743 500.971,165.243 501.5,169C 500.512,172.059 498.679,173.225 496,172.5C 493.536,173.763 492.37,175.763 492.5,178.5C 485.325,185.171 478.159,192.171 471,199.5C 472.942,191.946 476.275,184.946 481,178.5C 487.042,171.962 492.875,165.295 498.5,158.5 Z M 191.5,162.5 C 196.406,163.802 197.24,166.135 194,169.5C 193.326,167.483 192.159,165.817 190.5,164.5C 190.863,163.817 191.196,163.15 191.5,162.5 Z M 392.5,198.5 C 389.775,194.732 387.275,190.732 385,186.5C 381.928,183.598 379.095,180.598 376.5,177.5C 373.329,181.174 371.163,185.508 370,190.5C 368.829,196.513 367.663,202.513 366.5,208.5C 365.5,208.5 364.5,208.5 363.5,208.5C 365.61,193.059 369.444,178.059 375,163.5C 381.291,172.58 387.457,181.747 393.5,191C 392.5,191.333 391.5,191.667 390.5,192C 391.759,192.923 393.092,193.757 394.5,194.5C 393.37,195.622 392.703,196.956 392.5,198.5 Z M 512.5,273.5 C 514.881,258.093 517.715,242.76 521,227.5C 523.32,208.702 523.82,189.869 522.5,171C 522.258,168.652 523.092,166.818 525,165.5C 526.452,193.711 524.452,221.711 519,249.5C 517.386,257.776 515.22,265.776 512.5,273.5 Z M 518.5,170.5 C 521.028,190.872 520.861,211.538 518,232.5C 513.503,242.29 509.169,252.29 505,262.5C 510.51,234.417 513.177,205.75 513,176.5C 515.04,174.63 516.873,172.63 518.5,170.5 Z M 297.5,171.5 C 300.076,171.722 300.91,173.055 300,175.5C 298.294,174.692 297.461,173.359 297.5,171.5 Z M 528.5,174.5 C 529.289,183.837 529.956,193.337 530.5,203C 530.671,206.129 529.838,208.963 528,211.5C 526.207,206.856 526.207,202.19 528,197.5C 528.5,189.841 528.666,182.174 528.5,174.5 Z M 470.5,178.5 C 471.606,179.149 472.606,179.483 473.5,179.5C 472.754,180.736 472.421,182.07 472.5,183.5C 471.325,183.719 470.325,183.386 469.5,182.5C 470.246,181.264 470.579,179.93 470.5,178.5 Z M 305.5,179.5 C 307.337,179.639 307.67,180.306 306.5,181.5C 305.702,181.043 305.369,180.376 305.5,179.5 Z M 491.5,290.5 C 494.015,277.178 497.349,264.344 501.5,252C 500.3,250.297 500.633,248.797 502.5,247.5C 502.069,246.707 501.735,245.873 501.5,245C 502.431,238.523 503.265,232.023 504,225.5C 504.692,224.975 505.192,224.308 505.5,223.5C 506.276,210.405 506.276,197.238 505.5,184C 506.535,182.726 507.702,181.56 509,180.5C 510.451,212.011 507.118,243.011 499,273.5C 496.999,279.492 494.499,285.158 491.5,290.5 Z M 469.5,184.5 C 472.106,185.743 472.106,187.076 469.5,188.5C 470.872,190.62 470.205,191.62 467.5,191.5C 467.767,189.035 468.434,186.701 469.5,184.5 Z M 464.5,185.5 C 465.097,185.735 465.43,186.235 465.5,187C 464.167,191.333 462.833,195.667 461.5,200C 456.646,205.531 452.146,211.365 448,217.5C 449.379,212.385 451.379,207.385 454,202.5C 457.522,196.777 461.022,191.111 464.5,185.5 Z M 460.5,212.5 C 462.56,205.82 464.726,199.153 467,192.5C 468.776,196.725 468.776,201.058 467,205.5C 464.6,207.729 462.433,210.063 460.5,212.5 Z M 392.5,198.5 C 396.323,198.167 397.823,199.834 397,203.5C 394.585,202.589 393.085,200.922 392.5,198.5 Z M 276.5,199.5 C 277.552,199.351 278.552,199.517 279.5,200C 278.299,200.903 277.465,202.069 277,203.5C 276.167,202.667 275.333,201.833 274.5,201C 275.416,200.722 276.082,200.222 276.5,199.5 Z M 281.5,200.5 C 286.767,201.562 286.767,202.562 281.5,203.5C 281.5,202.5 281.5,201.5 281.5,200.5 Z M 389.5,203.5 C 394.61,205.557 399.277,208.391 403.5,212C 409,218.167 414.833,224 421,229.5C 422.652,234.099 423.652,238.765 424,243.5C 417.702,234.248 411.202,225.415 404.5,217C 401.167,215.333 397.833,213.667 394.5,212C 393.663,210.989 393.33,209.822 393.5,208.5C 392.5,208.5 391.5,208.5 390.5,208.5C 390.387,214.377 389.054,219.877 386.5,225C 386.545,227.381 387.211,229.881 388.5,232.5C 388.023,235.836 387.023,239.002 385.5,242C 387.564,245.081 387.231,248.081 384.5,251C 386.916,253.103 386.916,255.103 384.5,257C 384.905,257.945 385.572,258.612 386.5,259C 384.452,261.328 384.118,263.995 385.5,267C 385.325,268.658 384.658,269.991 383.5,271C 384.648,279.088 384.815,287.254 384,295.5C 383.259,282.659 382.426,269.826 381.5,257C 382.225,244.79 383.392,232.624 385,220.5C 386.039,214.674 387.539,209.007 389.5,203.5 Z M 274.5,209.5 C 277.247,209.187 279.914,209.52 282.5,210.5C 284.434,216.067 282.768,217.567 277.5,215C 275.393,213.736 274.393,211.903 274.5,209.5 Z M 285.5,209.5 C 286.675,209.281 287.675,209.614 288.5,210.5C 286.948,211.798 285.948,211.465 285.5,209.5 Z M 442.5,209.5 C 443.479,210.765 444.479,212.099 445.5,213.5C 444.5,214.167 443.5,214.833 442.5,215.5C 443.309,217.071 443.643,218.738 443.5,220.5C 442.5,220.5 441.5,220.5 440.5,220.5C 440.519,222.06 440.852,223.56 441.5,225C 439.925,229.891 438.259,234.725 436.5,239.5C 434.564,236.792 434.064,233.792 435,230.5C 437.203,223.389 439.703,216.389 442.5,209.5 Z M 222.5,210.5 C 226.514,210.334 230.514,210.501 234.5,211C 232.375,215.632 229.042,216.632 224.5,214C 223.177,213.184 222.511,212.017 222.5,210.5 Z M 456.5,210.5 C 457.043,210.56 457.376,210.893 457.5,211.5C 453.559,223.832 447.225,234.332 438.5,243C 442.816,231.199 448.816,220.366 456.5,210.5 Z M 362.5,211.5 C 366.3,211.819 366.466,212.819 363,214.5C 362.517,213.552 362.351,212.552 362.5,211.5 Z M 523.5,242.5 C 523.782,232.643 525.949,223.309 530,214.5C 530.964,224.638 528.798,233.971 523.5,242.5 Z M 361.5,215.5 C 365.069,217.146 365.402,219.312 362.5,222C 363.018,223.626 363.352,225.293 363.5,227C 362.798,235.996 362.132,244.996 361.5,254C 362.285,266.543 363.118,279.043 364,291.5C 360.486,266.27 359.653,240.937 361.5,215.5 Z M 306.5,217.5 C 311.329,218.129 312.996,220.629 311.5,225C 310.365,225.749 309.365,225.583 308.5,224.5C 307.054,222.382 306.387,220.049 306.5,217.5 Z M 315.5,220.5 C 317.921,225.783 316.254,229.116 310.5,230.5C 305.111,229.601 301.778,226.434 300.5,221C 301.333,220.167 302.167,219.333 303,218.5C 303.438,221.376 304.438,224.043 306,226.5C 312.18,229.865 315.347,227.865 315.5,220.5 Z M 401.5,220.5 C 402.458,220.953 403.292,221.619 404,222.5C 408.557,232.17 412.723,242.003 416.5,252C 416.37,253.059 415.87,253.892 415,254.5C 410.591,243.103 406.091,231.77 401.5,220.5 Z M 348.5,227.5 C 348.356,243.667 348.522,260.001 349,276.5C 348.13,265.112 346.963,253.779 345.5,242.5C 347.141,237.627 348.141,232.627 348.5,227.5 Z M 342.5,231.5 C 344.337,231.639 344.67,232.306 343.5,233.5C 342.702,233.043 342.369,232.376 342.5,231.5 Z M 283.5,234.5 C 289.702,237.587 289.868,240.92 284,244.5C 283,242.167 281.333,240.5 279,239.5C 278.195,241.901 277.362,241.734 276.5,239C 278.898,237.476 281.231,235.976 283.5,234.5 Z M 413.5,234.5 C 416.558,237.593 418.891,241.26 420.5,245.5C 420.192,246.308 419.692,246.975 419,247.5C 416.603,243.376 414.769,239.043 413.5,234.5 Z M 459.5,235.5 C 460.097,235.735 460.43,236.235 460.5,237C 459.331,242.671 457.665,248.171 455.5,253.5C 453.888,252.451 452.888,250.951 452.5,249C 453.161,246.536 453.661,244.036 454,241.5C 456.04,239.63 457.873,237.63 459.5,235.5 Z M 294.5,238.5 C 293.325,238.719 292.325,238.386 291.5,237.5C 292.86,236.335 293.86,236.668 294.5,238.5 Z M 294.5,238.5 C 295.625,241.52 294.959,244.353 292.5,247C 286.675,249.745 281.008,252.745 275.5,256C 268.879,257.571 262.546,259.905 256.5,263C 254.274,264.227 252.774,266.061 252,268.5C 248.692,265.012 248.859,261.845 252.5,259C 261.328,255.702 270.328,253.036 279.5,251C 283.336,248.916 287.003,246.583 290.5,244C 292.464,242.549 293.797,240.716 294.5,238.5 Z M 340.5,238.5 C 342.293,238.884 343.293,240.05 343.5,242C 339.47,255.54 337.304,269.373 337,283.5C 336.512,268.372 337.678,253.372 340.5,238.5 Z M 218.5,240.5 C 221.734,240.237 223.068,241.737 222.5,245C 222.873,247.617 221.873,249.45 219.5,250.5C 219.772,247.236 219.439,243.903 218.5,240.5 Z M 265.5,240.5 C 270.716,241.381 274.049,244.381 275.5,249.5C 273.085,249.627 270.751,249.793 268.5,250C 266.66,247.331 264.66,244.831 262.5,242.5C 261.841,245.728 262.841,248.561 265.5,251C 263.129,251.735 260.795,252.568 258.5,253.5C 257.059,249.231 254.392,246.065 250.5,244C 255.598,242.781 260.598,241.615 265.5,240.5 Z M 276.5,243.5 C 277.496,243.586 278.329,243.252 279,242.5C 279.465,243.931 280.299,245.097 281.5,246C 279.07,247.605 277.404,246.772 276.5,243.5 Z M 308.5,244.5 C 309.311,248.739 308.311,252.739 305.5,256.5C 305.167,256.167 304.833,255.833 304.5,255.5C 305.989,251.87 307.322,248.204 308.5,244.5 Z M 439.5,245.5 C 446.529,247.746 449.529,252.079 448.5,258.5C 450.385,259.197 450.718,260.197 449.5,261.5C 451.046,262.684 452.713,263.684 454.5,264.5C 446.468,263.947 438.468,264.614 430.5,266.5C 427.344,266.257 424.344,265.424 421.5,264C 422.308,263.692 422.975,263.192 423.5,262.5C 421.902,259.871 420.902,257.371 420.5,255C 422.891,254.309 422.891,253.309 420.5,252C 422.886,251.716 423.552,250.716 422.5,249C 424.067,247.924 425.734,247.091 427.5,246.5C 427.999,247.756 429.332,248.59 431.5,249C 434.882,249.824 438.216,249.657 441.5,248.5C 440.388,247.735 439.721,246.735 439.5,245.5 Z M 167.5,247.5 C 168.117,247.611 168.617,247.944 169,248.5C 169.495,250.473 169.662,252.473 169.5,254.5C 167.645,254.272 166.812,254.939 167,256.5C 170.081,259.293 173.581,261.46 177.5,263C 190.544,263.881 203.544,265.214 216.5,267C 224.477,269.089 225.977,273.256 221,279.5C 222.048,273.188 219.215,269.688 212.5,269C 209.657,268.554 206.824,268.054 204,267.5C 196.667,268.167 189.333,268.833 182,269.5C 174.432,269.222 168.765,265.889 165,259.5C 164.032,255.104 164.865,251.104 167.5,247.5 Z M 256.5,276.5 C 254.033,272.654 254.7,269.154 258.5,266C 265.007,262.942 271.674,260.275 278.5,258C 284.331,254.919 289.998,251.585 295.5,248C 299.01,248.007 300.01,249.674 298.5,253C 284.646,257.269 271.312,262.602 258.5,269C 256.887,271.228 256.22,273.728 256.5,276.5 Z M 504.5,272.5 C 507.147,265.125 509.98,257.791 513,250.5C 512.995,255.874 512.328,261.208 511,266.5C 510.1,267.77 508.934,268.77 507.5,269.5C 508.326,270.451 508.492,271.451 508,272.5C 506.855,271.316 505.688,271.316 504.5,272.5 Z M 251.5,255.5 C 251.459,251.757 252.126,251.59 253.5,255C 252.906,255.464 252.239,255.631 251.5,255.5 Z M 299.5,255.5 C 300.496,255.414 301.329,255.748 302,256.5C 307.43,264.692 311.763,273.359 315,282.5C 307.975,276.117 302.141,268.784 297.5,260.5C 296.749,261.376 296.249,262.376 296,263.5C 295.426,261.508 294.259,260.008 292.5,259C 295.174,258.33 297.507,257.163 299.5,255.5 Z M 285.5,264.5 C 292.881,269.952 294.214,268.452 289.5,260C 293.171,263.748 296.338,268.248 299,273.5C 303.712,278.543 308.045,283.877 312,289.5C 312.813,291.436 313.313,293.436 313.5,295.5C 311.599,295.433 309.766,295.767 308,296.5C 305.157,295.079 302.157,294.079 299,293.5C 297.941,290.382 296.608,287.382 295,284.5C 289.5,277.667 284,270.833 278.5,264C 279.635,263.251 280.635,263.417 281.5,264.5C 282.467,266.63 283.634,268.63 285,270.5C 290.704,276.573 296.204,281.74 301.5,286C 297.812,279.303 292.979,273.47 287,268.5C 286.209,267.255 285.709,265.922 285.5,264.5 Z M 528.5,275.5 C 528.187,270.64 529.354,266.306 532,262.5C 531.918,267.166 530.751,271.499 528.5,275.5 Z M 280.5,272.5 C 279.503,272.47 278.836,272.97 278.5,274C 280.739,278.935 282.072,284.101 282.5,289.5C 281.21,288.942 280.377,287.942 280,286.5C 277.853,279.911 276.02,273.244 274.5,266.5C 275.002,265.479 275.668,265.312 276.5,266C 278.232,267.972 279.565,270.139 280.5,272.5 Z M 282.5,289.5 C 283.932,291.327 285.599,292.994 287.5,294.5C 288.434,292.905 288.434,291.239 287.5,289.5C 290.336,290.995 291.336,293.161 290.5,296C 286.315,295.931 282.148,295.431 278,294.5C 273.961,286.255 269.794,278.089 265.5,270C 267.762,269.358 269.929,268.525 272,267.5C 273.258,273.941 274.925,280.275 277,286.5C 278.178,289.533 279.844,292.199 282,294.5C 282.5,294.167 283,293.833 283.5,293.5C 282.754,292.264 282.421,290.93 282.5,289.5 Z M 167.5,268.5 C 173.299,270.358 178.966,272.524 184.5,275C 179.24,274.768 173.907,274.435 168.5,274C 166.365,272.444 166.032,270.611 167.5,268.5 Z M 212.5,295.5 C 212.616,289.799 212.782,284.132 213,278.5C 210.574,284.207 209.741,290.041 210.5,296C 209.109,297.02 207.609,297.853 206,298.5C 203.122,296.49 199.956,295.157 196.5,294.5C 195.319,290.011 193.819,285.678 192,281.5C 191.421,286.272 192.254,290.772 194.5,295C 190.334,298.338 186.334,298.172 182.5,294.5C 183.919,292.664 185.086,290.664 186,288.5C 186.901,295.063 188.068,295.063 189.5,288.5C 188.965,286.339 188.132,284.339 187,282.5C 186.935,284.883 186.102,285.55 184.5,284.5C 183.394,290.757 179.727,294.09 173.5,294.5C 172.248,288.901 171.582,283.234 171.5,277.5C 178.565,276.991 185.399,277.991 192,280.5C 192.833,280.167 193.667,279.833 194.5,279.5C 194.333,279.167 194.167,278.833 194,278.5C 190.822,277.33 188.322,275.33 186.5,272.5C 187.167,272.167 187.833,271.833 188.5,271.5C 190.036,272.249 191.369,273.249 192.5,274.5C 193.386,273.675 193.719,272.675 193.5,271.5C 195.2,271.626 196.7,272.293 198,273.5C 199.729,271.552 201.896,270.552 204.5,270.5C 208.887,271.347 213.22,272.347 217.5,273.5C 217.5,281.167 217.5,288.833 217.5,296.5C 215.784,296.371 214.117,296.038 212.5,295.5 Z M 268.5,285.5 C 265.647,280.979 262.647,276.479 259.5,272C 260.667,270.216 261.667,270.216 262.5,272C 264.649,276.463 266.649,280.963 268.5,285.5 Z M 419.5,272.5 C 423.406,272.894 427.072,274.06 430.5,276C 436.248,276.565 441.915,276.065 447.5,274.5C 448.833,274.667 450.167,274.833 451.5,275C 452.137,278.135 451.471,281.135 449.5,284C 444.722,286.603 440.055,289.436 435.5,292.5C 431.135,290.901 426.969,288.901 423,286.5C 421.551,280.121 422.718,279.954 426.5,286C 429.992,287.106 432.658,286.106 434.5,283C 430.457,279.705 425.79,277.872 420.5,277.5C 419.691,275.929 419.357,274.262 419.5,272.5 Z M 504.5,272.5 C 505.197,274.071 505.53,275.571 505.5,277C 501.809,284.215 497.975,291.381 494,298.5C 494.015,295.43 494.682,292.43 496,289.5C 498.38,283.475 501.213,277.808 504.5,272.5 Z M 528.5,275.5 C 528.625,280.333 527.792,285 526,289.5C 525.874,284.581 526.708,279.915 528.5,275.5 Z M 283.5,276.5 C 289.169,281.337 293.502,287.17 296.5,294C 296.167,294.5 295.833,295 295.5,295.5C 293.753,291.704 291.253,288.37 288,285.5C 286.239,282.589 284.739,279.589 283.5,276.5 Z M 417.5,282.5 C 418.688,284.496 418.021,285.329 415.5,285C 416.381,284.292 417.047,283.458 417.5,282.5 Z M 311.5,283.5 C 314.867,286.2 317.867,289.2 320.5,292.5C 318.833,293.833 317.167,293.833 315.5,292.5C 314.141,289.486 312.808,286.486 311.5,283.5 Z M 268.5,285.5 C 270.674,288.515 272.341,291.849 273.5,295.5C 270.793,292.753 269.127,289.42 268.5,285.5 Z M 285.5,286.5 C 286.906,286.973 287.573,287.973 287.5,289.5C 286.094,289.027 285.427,288.027 285.5,286.5 Z M 424.5,293.5 C 425.601,292.402 426.934,292.235 428.5,293C 427.809,294.067 427.309,295.234 427,296.5C 426.623,295.058 425.79,294.058 424.5,293.5 Z M 440.5,293.5 C 441.267,294.172 441.934,295.005 442.5,296C 440.939,296.188 440.272,295.355 440.5,293.5 Z"/></g>
<g><path style="opacity:0.717" fill="#928d8c" d="M 582.5,115.5 C 585.567,115.57 587.9,116.904 589.5,119.5C 594.886,114.026 600.053,114.36 605,120.5C 605.651,122.235 605.485,123.902 604.5,125.5C 606.592,130.023 609.925,131.523 614.5,130C 616.96,131.458 619.127,133.291 621,135.5C 621.162,138.789 620.496,141.789 619,144.5C 620.934,147.688 623.768,149.188 627.5,149C 635.276,151.93 636.609,156.764 631.5,163.5C 631.833,164.167 632.167,164.833 632.5,165.5C 640.295,167.409 643.962,172.409 643.5,180.5C 647.056,181.862 650.222,183.862 653,186.5C 654.063,189.769 654.896,193.102 655.5,196.5C 657.5,197.167 659.5,197.833 661.5,198.5C 662.481,202.616 664.647,205.949 668,208.5C 668.759,185.842 669.426,163.176 670,140.5C 672.233,120.238 683.066,112.738 702.5,118C 708.058,121.871 711.558,127.038 713,133.5C 713.671,149.674 713.504,165.841 712.5,182C 713.609,212.828 714.109,243.661 714,274.5C 713.691,281.955 711.191,288.455 706.5,294C 696.923,297.963 687.256,298.297 677.5,295C 664.375,278.873 650.875,263.039 637,247.5C 625.257,231.685 614.257,215.351 604,198.5C 602.165,212.162 602.332,225.828 604.5,239.5C 606.876,238.183 608.543,238.85 609.5,241.5C 607.514,260.444 607.347,279.444 609,298.5C 615.768,298.491 622.602,298.824 629.5,299.5C 628.975,300.192 628.308,300.692 627.5,301C 602.229,303.181 577.062,302.681 552,299.5C 548.23,299.464 544.396,299.797 540.5,300.5C 539.5,300.167 538.5,299.833 537.5,299.5C 538.912,298.194 540.579,297.36 542.5,297C 546.148,296.938 549.815,297.105 553.5,297.5C 553.757,279.652 553.423,261.819 552.5,244C 552.833,242.167 553.167,240.333 553.5,238.5C 555.059,237.926 556.559,237.26 558,236.5C 558.667,224.833 558.667,213.167 558,201.5C 552.881,194.598 552.048,187.098 555.5,179C 553.427,175.099 553.094,171.099 554.5,167C 550.789,165.085 549.789,162.252 551.5,158.5C 550.935,156.595 549.935,154.929 548.5,153.5C 550.024,149.717 551.024,145.717 551.5,141.5C 553.817,143.316 555.984,145.316 558,147.5C 560.07,140.293 562.737,133.293 566,126.5C 569.727,121.053 574.894,118.386 581.5,118.5C 582.127,117.583 582.461,116.583 582.5,115.5 Z M 584.5,118.5 C 585.921,121.508 585.754,124.508 584,127.5C 582.029,124.384 582.195,121.384 584.5,118.5 Z M 594.5,118.5 C 598.227,118.195 600.894,119.695 602.5,123C 602,123.5 601.5,124 601,124.5C 598.97,122.263 596.47,120.763 593.5,120C 594.056,119.617 594.389,119.117 594.5,118.5 Z M 691.5,118.5 C 702.702,119.867 709.202,126.2 711,137.5C 711.499,158.186 710.999,178.853 709.5,199.5C 710.101,218.189 711.101,236.856 712.5,255.5C 712.343,266.075 710.843,276.408 708,286.5C 702.948,292.303 696.448,294.97 688.5,294.5C 682.156,294.078 676.989,291.411 673,286.5C 661.756,271.252 649.756,256.586 637,242.5C 632.44,234.607 627.107,227.273 621,220.5C 616.755,211.669 611.755,203.336 606,195.5C 605.883,194.05 606.05,192.55 606.5,191C 604.901,182.082 603.234,173.416 601.5,165C 602.57,163.291 603.903,161.791 605.5,160.5C 604.2,157.679 604.533,155.012 606.5,152.5C 605.758,151.713 604.925,151.047 604,150.5C 603.824,147.118 603.324,143.785 602.5,140.5C 598.445,142.612 596.445,145.945 596.5,150.5C 597.127,156.155 597.627,161.821 598,167.5C 601.255,174.108 602.588,181.108 602,188.5C 600.68,186.346 598.847,184.846 596.5,184C 588.5,183.333 580.5,183.333 572.5,184C 567.81,187.012 562.81,189.512 557.5,191.5C 557.529,183.882 557.362,176.215 557,168.5C 558.496,154.009 562.829,140.342 570,127.5C 572.274,123.848 575.441,122.015 579.5,122C 580.274,124.405 580.774,126.905 581,129.5C 582.775,132.044 584.608,132.044 586.5,129.5C 587.577,127.271 588.244,124.937 588.5,122.5C 595.474,124.223 601.641,127.557 607,132.5C 619.078,148.984 630.411,165.984 641,183.5C 646.906,190.317 652.573,197.317 658,204.5C 661,206.833 664,209.167 667,211.5C 669.816,216.961 672.816,222.295 676,227.5C 676.758,225.231 676.591,223.064 675.5,221C 676.516,220.481 677.182,219.647 677.5,218.5C 676.168,216.337 674.334,214.67 672,213.5C 671.833,211.833 671.667,210.167 671.5,208.5C 671.092,184.841 671.592,161.174 673,137.5C 675.424,127.245 681.59,120.912 691.5,118.5 Z M 611.5,134.5 C 614.869,132.951 617.202,134.118 618.5,138C 617.975,138.692 617.308,139.192 616.5,139.5C 615.055,137.606 613.388,135.94 611.5,134.5 Z M 580.5,145.5 C 582.874,147.401 583.041,149.735 581,152.5C 579.585,150.157 579.418,147.823 580.5,145.5 Z M 553.5,148.5 C 554.794,149.29 555.961,150.29 557,151.5C 557.279,155.17 557.112,158.837 556.5,162.5C 555.5,162.5 554.5,162.5 553.5,162.5C 554.355,157.634 554.355,152.968 553.5,148.5 Z M 599.5,148.5 C 600.199,150.556 601.199,152.556 602.5,154.5C 601.811,156.444 601.311,158.444 601,160.5C 600.358,156.509 599.858,152.509 599.5,148.5 Z M 625.5,153.5 C 628.319,152.239 630.319,153.239 631.5,156.5C 631,157.5 630.5,158.5 630,159.5C 628.236,157.611 626.736,155.611 625.5,153.5 Z M 636.5,172.5 C 637.189,171.226 638.023,171.226 639,172.5C 639.982,173.759 640.315,175.092 640,176.5C 639.051,174.907 637.885,173.574 636.5,172.5 Z M 585.5,185.5 C 586.822,185.33 587.989,185.663 589,186.5C 589.497,189.146 589.664,191.813 589.5,194.5C 590.873,194.657 592.207,194.49 593.5,194C 595.017,192.315 596.684,190.815 598.5,189.5C 599.086,189.709 599.586,190.043 600,190.5C 598.969,207.207 599.469,223.873 601.5,240.5C 600.74,242.437 599.74,244.27 598.5,246C 599.653,247.883 601.319,248.716 603.5,248.5C 603.39,245.941 604.056,243.608 605.5,241.5C 605.833,242.667 606.167,243.833 606.5,245C 605.254,263.164 605.254,281.33 606.5,299.5C 600.5,299.5 594.5,299.5 588.5,299.5C 588.296,296.482 587.963,293.482 587.5,290.5C 584.482,290.335 581.482,290.502 578.5,291C 577.565,293.381 577.232,295.881 577.5,298.5C 570.511,299.672 563.511,299.672 556.5,298.5C 555.255,286.016 555.255,273.516 556.5,261C 556.235,254.785 555.569,248.619 554.5,242.5C 555.693,240.366 557.527,239.033 560,238.5C 560.333,225.5 560.667,212.5 561,199.5C 561.028,194.541 562.528,193.707 565.5,197C 563.722,199.135 563.055,201.635 563.5,204.5C 565.833,204.5 568.167,204.5 570.5,204.5C 570.408,200.636 569.908,196.97 569,193.5C 569.481,188.848 571.981,186.515 576.5,186.5C 576.231,188.429 576.731,190.095 578,191.5C 580.134,188.847 582.634,186.847 585.5,185.5 Z M 591.5,186.5 C 592.978,186.238 594.311,186.571 595.5,187.5C 592.344,193.028 591.01,192.695 591.5,186.5 Z"/></g>
<g><path style="opacity:0.727" fill="#928d8c" d="M 179.5,122.5 C 183.648,122.834 185.315,125.167 184.5,129.5C 182.5,129.5 180.5,129.5 178.5,129.5C 178.298,127.05 178.631,124.717 179.5,122.5 Z"/></g>
<g><path style="opacity:0.758" fill="#928d8c" d="M 580.5,141.5 C 581.822,141.33 582.989,141.663 584,142.5C 584.667,146.167 584.667,149.833 584,153.5C 582.084,156.033 580.084,156.033 578,153.5C 577.333,150.167 577.333,146.833 578,143.5C 578.995,142.934 579.828,142.267 580.5,141.5 Z M 580.5,145.5 C 579.418,147.823 579.585,150.157 581,152.5C 583.041,149.735 582.874,147.401 580.5,145.5 Z"/></g>
<g><path style="opacity:0.677" fill="#928d8c" d="M 202.5,150.5 C 208.067,149.753 209.9,152.087 208,157.5C 204.112,160.158 201.278,159.158 199.5,154.5C 200.524,153.148 201.524,151.815 202.5,150.5 Z M 203.5,153.5 C 203.517,155.028 204.184,155.528 205.5,155C 204.956,154.283 204.289,153.783 203.5,153.5 Z"/></g>
<g><path style="opacity:0.764" fill="#928d8c" d="M 294.5,150.5 C 297.119,150.232 299.619,150.565 302,151.5C 302.497,154.146 302.664,156.813 302.5,159.5C 293.776,161.133 291.109,158.133 294.5,150.5 Z"/></g>
<g><path style="opacity:0.541" fill="#928d8c" d="M 278.5,155.5 C 279.5,155.5 280.5,155.5 281.5,155.5C 280.754,159.31 279.754,159.31 278.5,155.5 Z"/></g>
<g><path style="opacity:0.466" fill="#928d8c" d="M 282.5,158.5 C 284.465,158.948 284.798,159.948 283.5,161.5C 281.481,160.867 281.147,159.867 282.5,158.5 Z"/></g>
<g><path style="opacity:0.737" fill="#928d8c" d="M 189.5,159.5 C 196.926,159.972 199.76,163.972 198,171.5C 191.452,176.149 187.285,174.482 185.5,166.5C 186.086,163.651 187.42,161.318 189.5,159.5 Z M 191.5,162.5 C 191.196,163.15 190.863,163.817 190.5,164.5C 192.159,165.817 193.326,167.483 194,169.5C 197.24,166.135 196.406,163.802 191.5,162.5 Z"/></g>
<g><path style="opacity:0.67" fill="#928d8c" d="M 303.5,176.5 C 295.735,179.554 292.901,177.22 295,169.5C 297.461,167.491 299.961,167.324 302.5,169C 302.167,169.333 301.833,169.667 301.5,170C 302.669,172.007 303.335,174.173 303.5,176.5 Z M 297.5,171.5 C 297.461,173.359 298.294,174.692 300,175.5C 300.91,173.055 300.076,171.722 297.5,171.5 Z"/></g>
<g><path style="opacity:0.632" fill="#928d8c" d="M 590.5,168.5 C 591.675,168.281 592.675,168.614 593.5,169.5C 591.436,174.366 587.769,177.032 582.5,177.5C 582.351,176.448 582.517,175.448 583,174.5C 585.688,172.636 588.188,170.636 590.5,168.5 Z"/></g>
<g><path style="opacity:0.663" fill="#928d8c" d="M 564.5,169.5 C 568.549,172.134 572.882,174.301 577.5,176C 576.953,176.925 576.287,177.758 575.5,178.5C 570.319,177.736 566.319,175.236 563.5,171C 564.056,170.617 564.389,170.117 564.5,169.5 Z"/></g>
<g><path style="opacity:0.682" fill="#928d8c" d="M 303.5,176.5 C 308.672,175.565 310.839,177.565 310,182.5C 308.04,184.899 305.874,185.065 303.5,183C 302.395,180.88 302.395,178.713 303.5,176.5 Z M 305.5,179.5 C 305.369,180.376 305.702,181.043 306.5,181.5C 307.67,180.306 307.337,179.639 305.5,179.5 Z"/></g>
<g><path style="opacity:0.494" fill="#928d8c" d="M 343.5,180.5 C 345.048,180.821 345.715,181.821 345.5,183.5C 342.752,183.598 342.086,182.598 343.5,180.5 Z"/></g>
<g><path style="opacity:0.698" fill="#928d8c" d="M 263.5,184.5 C 265.017,184.511 266.184,185.177 267,186.5C 268.439,184.986 269.939,184.653 271.5,185.5C 269.739,187.253 268.406,189.253 267.5,191.5C 268.617,194.07 269.45,196.737 270,199.5C 276.92,191.413 283.754,191.58 290.5,200C 290.043,200.414 289.709,200.914 289.5,201.5C 290.908,202.243 292.241,203.077 293.5,204C 291.377,205.194 289.043,205.86 286.5,206C 290.821,206.499 295.154,206.666 299.5,206.5C 299.5,207.5 299.5,208.5 299.5,209.5C 295.225,208.726 292.225,210.226 290.5,214C 286.967,213.868 284.967,215.535 284.5,219C 277.231,219.902 272.898,216.736 271.5,209.5C 267.5,209.5 263.5,209.5 259.5,209.5C 259.845,212.488 258.512,213.821 255.5,213.5C 252.729,213.616 250.729,212.449 249.5,210C 245.1,209.022 240.933,209.522 237,211.5C 234.18,218.745 229.347,220.245 222.5,216C 217.691,210.494 211.691,208.994 204.5,211.5C 204.27,214.465 202.603,215.798 199.5,215.5C 195.179,212.692 190.512,210.692 185.5,209.5C 217.175,207.492 248.841,206.658 280.5,207C 276.035,205.851 271.868,204.018 268,201.5C 267.209,197.281 265.375,193.614 262.5,190.5C 263.348,188.591 263.682,186.591 263.5,184.5 Z M 276.5,199.5 C 276.082,200.222 275.416,200.722 274.5,201C 275.333,201.833 276.167,202.667 277,203.5C 277.465,202.069 278.299,200.903 279.5,200C 278.552,199.517 277.552,199.351 276.5,199.5 Z M 281.5,200.5 C 281.5,201.5 281.5,202.5 281.5,203.5C 286.767,202.562 286.767,201.562 281.5,200.5 Z M 274.5,209.5 C 274.393,211.903 275.393,213.736 277.5,215C 282.768,217.567 284.434,216.067 282.5,210.5C 279.914,209.52 277.247,209.187 274.5,209.5 Z M 285.5,209.5 C 285.948,211.465 286.948,211.798 288.5,210.5C 287.675,209.614 286.675,209.281 285.5,209.5 Z M 222.5,210.5 C 222.511,212.017 223.177,213.184 224.5,214C 229.042,216.632 232.375,215.632 234.5,211C 230.514,210.501 226.514,210.334 222.5,210.5 Z"/></g>
<g><path style="opacity:0.72" fill="#928d8c" d="M 228.5,188.5 C 231.462,193.291 230.796,197.791 226.5,202C 223.274,203.464 219.941,204.631 216.5,205.5C 211.547,203.666 206.547,202.999 201.5,203.5C 203.304,202.232 205.304,201.565 207.5,201.5C 207.444,198.439 208.778,196.272 211.5,195C 217.076,193.528 221.909,194.695 226,198.5C 227.221,197.226 228.054,195.726 228.5,194C 227.245,192.113 227.245,190.28 228.5,188.5 Z"/></g>
<g><path style="opacity:0.721" fill="#928d8c" d="M 575.5,196.5 C 580.536,196.349 582.203,198.515 580.5,203C 578.975,204.009 577.308,204.509 575.5,204.5C 575.5,201.833 575.5,199.167 575.5,196.5 Z"/></g>
<g><path style="opacity:0.834" fill="#928d8c" d="M 586.5,196.5 C 588.144,196.286 589.644,196.62 591,197.5C 591.495,199.473 591.662,201.473 591.5,203.5C 589.833,203.5 588.167,203.5 586.5,203.5C 586.5,201.167 586.5,198.833 586.5,196.5 Z"/></g>
<g><path style="opacity:0.48" fill="#928d8c" d="M 69.5,200.5 C 69.0825,199.778 68.4158,199.278 67.5,199C 68.9437,198.219 70.277,198.386 71.5,199.5C 71.0431,200.298 70.3764,200.631 69.5,200.5 Z"/></g>
<g><path style="opacity:0.585" fill="#928d8c" d="M 69.5,200.5 C 71.9023,201.734 71.7357,203.067 69,204.5C 66.9803,203.968 66.147,202.635 66.5,200.5C 67.5,200.5 68.5,200.5 69.5,200.5 Z"/></g>
<g><path style="opacity:0.735" fill="#928d8c" d="M 577.5,212.5 C 581.361,213.21 583.027,215.543 582.5,219.5C 580.54,220.138 578.707,220.138 577,219.5C 576.444,217.115 576.61,214.782 577.5,212.5 Z"/></g>
<g><path style="opacity:0.695" fill="#928d8c" d="M 587.5,212.5 C 588.822,212.33 589.989,212.663 591,213.5C 591.497,215.81 591.663,218.143 591.5,220.5C 589.856,220.714 588.356,220.38 587,219.5C 586.297,217.071 586.463,214.738 587.5,212.5 Z"/></g>
<g><path style="opacity:0.802" fill="#928d8c" d="M 567.5,213.5 C 568.833,213.5 570.167,213.5 571.5,213.5C 571.5,215.833 571.5,218.167 571.5,220.5C 565.434,221.388 564.101,219.055 567.5,213.5 Z"/></g>
<g><path style="opacity:0.802" fill="#928d8c" d="M 567.5,224.5 C 569.167,224.5 570.833,224.5 572.5,224.5C 572.817,227.572 572.484,230.572 571.5,233.5C 569.929,232.691 568.262,232.357 566.5,232.5C 566.279,229.721 566.612,227.054 567.5,224.5 Z"/></g>
<g><path style="opacity:0.736" fill="#928d8c" d="M 579.5,224.5 C 581.397,226.698 582.397,229.364 582.5,232.5C 577.409,234.579 575.576,232.912 577,227.5C 578.045,226.627 578.878,225.627 579.5,224.5 Z"/></g>
<g><path style="opacity:0.752" fill="#928d8c" d="M 589.5,224.5 C 590.822,224.33 591.989,224.663 593,225.5C 593.495,227.473 593.662,229.473 593.5,231.5C 591.833,231.5 590.167,231.5 588.5,231.5C 588.298,229.05 588.631,226.717 589.5,224.5 Z"/></g>
<g><path style="opacity:0.707" fill="#928d8c" d="M 195.5,225.5 C 199.568,227.273 200.234,229.773 197.5,233C 195.888,233.72 194.388,233.554 193,232.5C 192.505,230.527 192.338,228.527 192.5,226.5C 193.791,226.737 194.791,226.404 195.5,225.5 Z"/></g>
<g><path style="opacity:0.681" fill="#928d8c" d="M 170.5,230.5 C 173.797,231.797 176.13,234.13 177.5,237.5C 177.081,238.672 176.415,239.672 175.5,240.5C 174.264,239.754 172.93,239.421 171.5,239.5C 171.492,236.455 171.159,233.455 170.5,230.5 Z"/></g>
<g><path style="opacity:0.803" fill="#928d8c" d="M 567.5,239.5 C 569.167,239.5 570.833,239.5 572.5,239.5C 572.5,241.833 572.5,244.167 572.5,246.5C 570.833,246.5 569.167,246.5 567.5,246.5C 567.5,244.167 567.5,241.833 567.5,239.5 Z"/></g>
<g><path style="opacity:0.702" fill="#928d8c" d="M 578.5,239.5 C 580.167,239.5 581.833,239.5 583.5,239.5C 585.908,244.681 584.241,247.348 578.5,247.5C 578.5,244.833 578.5,242.167 578.5,239.5 Z"/></g>
<g><path style="opacity:0.758" fill="#928d8c" d="M 590.5,239.5 C 595.068,239.083 596.568,241.083 595,245.5C 593.915,246.293 592.748,246.96 591.5,247.5C 590.52,244.914 590.187,242.247 590.5,239.5 Z"/></g>
<g><path style="opacity:0.765" fill="#928d8c" d="M 559.5,241.5 C 563.473,242.075 564.473,244.242 562.5,248C 561.216,248.684 560.049,248.517 559,247.5C 558.322,245.402 558.489,243.402 559.5,241.5 Z"/></g>
<g><path style="opacity:0.648" fill="#928d8c" d="M 201.5,243.5 C 202.117,243.611 202.617,243.944 203,244.5C 204.03,249.943 203.03,254.943 200,259.5C 198.883,255.512 198.216,251.512 198,247.5C 198.689,248.357 199.522,249.023 200.5,249.5C 201.466,247.604 201.799,245.604 201.5,243.5 Z"/></g>
<g><path style="opacity:0.669" fill="#928d8c" d="M 175.5,244.5 C 176.496,244.414 177.329,244.748 178,245.5C 178.377,249.019 178.877,252.519 179.5,256C 179.32,258.241 178.487,258.741 177,257.5C 176.265,253.187 175.765,248.853 175.5,244.5 Z"/></g>
<g><path style="opacity:0.578" fill="#928d8c" d="M 205.5,246.5 C 207.026,247.492 207.693,248.992 207.5,251C 207.604,253.145 206.937,254.979 205.5,256.5C 204.692,256.192 204.025,255.692 203.5,255C 204.991,252.379 205.658,249.545 205.5,246.5 Z"/></g>
<g><path style="opacity:0.547" fill="#928d8c" d="M 429.5,250.5 C 432.397,250.125 435.063,250.625 437.5,252C 436.167,252.167 434.833,252.333 433.5,252.5C 431.667,252.415 430.334,251.748 429.5,250.5 Z"/></g>
<g><path style="opacity:0.579" fill="#928d8c" d="M 440.5,251.5 C 442.728,255.076 443.728,259.076 443.5,263.5C 441.571,263.769 439.905,263.269 438.5,262C 439.39,258.595 440.057,255.095 440.5,251.5 Z"/></g>
<g><path style="opacity:0.335" fill="#928d8c" d="M 425.5,252.5 C 426.675,252.281 427.675,252.614 428.5,253.5C 426.948,254.798 425.948,254.465 425.5,252.5 Z"/></g>
<g><path style="opacity:0.662" fill="#928d8c" d="M 601.5,253.5 C 604.087,256.01 604.087,258.677 601.5,261.5C 600.328,261.081 599.328,260.415 598.5,259.5C 599.001,257.164 600.001,255.164 601.5,253.5 Z"/></g>
<g><path style="opacity:0.74" fill="#928d8c" d="M 591.5,254.5 C 592.5,254.5 593.5,254.5 594.5,254.5C 594.244,256.792 594.577,258.959 595.5,261C 593.314,262.309 591.147,262.476 589,261.5C 588.833,260.667 588.667,259.833 588.5,259C 589.008,257.107 590.008,255.607 591.5,254.5 Z"/></g>
<g><path style="opacity:0.559" fill="#928d8c" d="M 425.5,255.5 C 426.873,255.343 428.207,255.51 429.5,256C 428.542,257.147 428.875,258.147 430.5,259C 429.289,260.113 429.289,261.28 430.5,262.5C 428.5,265.167 426.5,265.167 424.5,262.5C 424.543,260.182 424.876,257.849 425.5,255.5 Z"/></g>
<g><path style="opacity:0.768" fill="#928d8c" d="M 562.5,255.5 C 563.5,255.5 564.5,255.5 565.5,255.5C 565.813,258.247 565.48,260.914 564.5,263.5C 562.13,265.098 560.464,264.598 559.5,262C 559.863,259.447 560.863,257.28 562.5,255.5 Z"/></g>
<g><path style="opacity:0.82" fill="#928d8c" d="M 571.5,255.5 C 572.833,255.5 574.167,255.5 575.5,255.5C 575.5,257.833 575.5,260.167 575.5,262.5C 573.712,262.785 572.045,262.452 570.5,261.5C 571.348,259.591 571.682,257.591 571.5,255.5 Z"/></g>
<g><path style="opacity:0.759" fill="#928d8c" d="M 209.5,256.5 C 210.788,258.035 210.788,259.701 209.5,261.5C 208.334,259.833 208.334,258.166 209.5,256.5 Z"/></g>
<g><path style="opacity:0.81" fill="#928d8c" d="M 578.5,256.5 C 583.906,255.735 585.906,258.069 584.5,263.5C 579.094,264.265 577.094,261.931 578.5,256.5 Z"/></g>
<g><path style="opacity:0.728" fill="#928d8c" d="M 597.5,266.5 C 598.822,266.33 599.989,266.663 601,267.5C 601.667,269.833 601.667,272.167 601,274.5C 598.2,276.118 596.7,275.285 596.5,272C 596.943,270.175 597.277,268.342 597.5,266.5 Z"/></g>
<g><path style="opacity:0.707" fill="#928d8c" d="M 589.5,267.5 C 593.866,268.927 594.532,271.427 591.5,275C 590.552,275.483 589.552,275.649 588.5,275.5C 588.279,272.721 588.612,270.054 589.5,267.5 Z"/></g>
<g><path style="opacity:0.713" fill="#928d8c" d="M 76.5,281.5 C 80.753,281.566 81.4197,283.066 78.5,286C 77.255,286.791 75.9217,287.291 74.5,287.5C 74.0296,288.693 73.0296,289.36 71.5,289.5C 65.4201,290.824 59.4201,290.491 53.5,288.5C 54.7111,287.28 54.7111,286.113 53.5,285C 54.3279,284.085 55.3279,283.419 56.5,283C 55.1068,281.829 54.2735,280.329 54,278.5C 53.2904,279.973 52.1238,280.64 50.5,280.5C 50.5,281.5 50.5,282.5 50.5,283.5C 48.901,283.232 47.5676,283.566 46.5,284.5C 48.288,284.215 49.9547,284.548 51.5,285.5C 49.9007,287.729 47.9007,288.062 45.5,286.5C 39.8769,293.074 33.2103,294.574 25.5,291C 22.3091,289.131 21.6424,286.631 23.5,283.5C 25.7834,283.608 27.7834,284.441 29.5,286C 32.5,286.667 35.5,286.667 38.5,286C 35.8333,285.667 33.1667,285.333 30.5,285C 28.2951,283.294 25.9617,281.794 23.5,280.5C 24.3636,278.803 25.6969,277.637 27.5,277C 25.3825,276.74 23.7158,275.74 22.5,274C 28.1445,273.823 33.6445,272.99 39,271.5C 42.8443,277.532 47.8443,278.865 54,275.5C 54.4935,273.866 54.6602,272.199 54.5,270.5C 58.5349,271.173 62.5349,270.506 66.5,268.5C 73.138,270.748 76.4714,275.081 76.5,281.5 Z M 70.5,274.5 C 69.6851,273.163 68.5185,272.163 67,271.5C 67.033,273.478 68.1996,274.478 70.5,274.5 Z M 61.5,277.5 C 63.9118,277.694 64.9118,279.027 64.5,281.5C 61.6118,281.78 60.1118,280.447 60,277.5C 59.0975,278.701 57.9308,279.535 56.5,280C 62.1195,283.155 67.7862,283.155 73.5,280C 69.7863,276.932 65.7863,276.099 61.5,277.5 Z M 31.5,279.5 C 33.1667,279.5 34.8333,279.5 36.5,279.5C 36.0941,281.109 36.0941,282.443 36.5,283.5C 38.9242,282.577 40.9242,281.077 42.5,279C 38.5752,276.874 34.9085,277.04 31.5,279.5 Z M 31.5,279.5 C 30.0783,279.709 28.745,280.209 27.5,281C 29.4628,281.844 30.7961,281.344 31.5,279.5 Z M 74.5,287.5 C 74.33,286.178 74.6634,285.011 75.5,284C 74.8333,283.833 74.1667,283.667 73.5,283.5C 68.425,284.596 63.425,285.096 58.5,285C 59.3279,285.915 60.3279,286.581 61.5,287C 65.8978,286.909 70.2312,287.076 74.5,287.5 Z"/></g>
<g><path style="opacity:0.774" fill="#928d8c" d="M 560.5,268.5 C 561.822,268.33 562.989,268.663 564,269.5C 564.758,271.769 564.591,273.936 563.5,276C 560.094,277.24 558.427,276.073 558.5,272.5C 558.803,270.886 559.47,269.552 560.5,268.5 Z"/></g>
<g><path style="opacity:0.701" fill="#928d8c" d="M 571.5,268.5 C 572.5,268.5 573.5,268.5 574.5,268.5C 574.663,270.857 574.497,273.19 574,275.5C 572.644,276.38 571.144,276.714 569.5,276.5C 569.107,273.487 569.774,270.82 571.5,268.5 Z"/></g>
<g><path style="opacity:0.747" fill="#928d8c" d="M 579.5,268.5 C 580.833,268.5 582.167,268.5 583.5,268.5C 583.662,270.527 583.495,272.527 583,274.5C 581.667,275.833 580.333,275.833 579,274.5C 578.322,272.402 578.489,270.402 579.5,268.5 Z"/></g>
<g><path style="opacity:0.616" fill="#928d8c" d="M 207.5,273.5 C 208.995,273.415 209.995,274.081 210.5,275.5C 208.824,282.4 207.657,289.4 207,296.5C 205.904,294.541 205.404,292.375 205.5,290C 206.028,284.474 206.694,278.974 207.5,273.5 Z"/></g>
<g><path style="opacity:0.611" fill="#928d8c" d="M 198.5,274.5 C 199.793,275.842 200.626,277.509 201,279.5C 201.667,283.5 201.667,287.5 201,291.5C 199.514,286.014 198.681,280.348 198.5,274.5 Z"/></g>
<g><path style="opacity:0.767" fill="#928d8c" d="M 588.5,278.5 C 589.833,278.5 591.167,278.5 592.5,278.5C 593.106,281.916 592.106,284.582 589.5,286.5C 587.225,284.168 586.892,281.502 588.5,278.5 Z"/></g>
<g><path style="opacity:0.706" fill="#928d8c" d="M 598.5,278.5 C 600.167,278.5 601.833,278.5 603.5,278.5C 603.007,280.806 602.674,283.139 602.5,285.5C 600.833,285.5 599.167,285.5 597.5,285.5C 597.448,283.097 597.781,280.764 598.5,278.5 Z"/></g>
<g><path style="opacity:0.728" fill="#928d8c" d="M 442.5,279.5 C 444.75,279.181 446.75,279.681 448.5,281C 446.697,281.637 445.364,282.803 444.5,284.5C 433.233,286.216 432.567,284.549 442.5,279.5 Z"/></g>
<g><path style="opacity:0.747" fill="#928d8c" d="M 570.5,280.5 C 571.833,280.5 573.167,280.5 574.5,280.5C 574.662,282.527 574.495,284.527 574,286.5C 572.644,287.38 571.144,287.714 569.5,287.5C 569.298,285.05 569.631,282.717 570.5,280.5 Z"/></g>
<g><path style="opacity:0.774" fill="#928d8c" d="M 578.5,280.5 C 579.833,280.5 581.167,280.5 582.5,280.5C 582.357,282.262 582.691,283.929 583.5,285.5C 578.484,287.125 576.817,285.458 578.5,280.5 Z"/></g>
<g><path style="opacity:0.741" fill="#928d8c" d="M 561.5,281.5 C 565.554,281.259 566.887,282.926 565.5,286.5C 563.955,287.452 562.288,287.785 560.5,287.5C 560.325,285.379 560.659,283.379 561.5,281.5 Z"/></g>
<g><path style="opacity:0.501" fill="#928d8c" d="M 176.5,284.5 C 177.376,284.369 178.043,284.702 178.5,285.5C 176.172,290.557 175.506,290.224 176.5,284.5 Z"/></g>
<g><path style="opacity:0.725" fill="#928d8c" d="M 597.5,289.5 C 599.167,289.5 600.833,289.5 602.5,289.5C 602.808,291.924 602.474,294.257 601.5,296.5C 599.929,297.309 598.262,297.643 596.5,297.5C 596.575,294.794 596.908,292.127 597.5,289.5 Z"/></g>
<g><path style="opacity:0.807" fill="#928d8c" d="M 561.5,290.5 C 563.167,290.5 564.833,290.5 566.5,290.5C 567.113,294.512 565.446,296.512 561.5,296.5C 561.5,294.5 561.5,292.5 561.5,290.5 Z"/></g>
</svg>
