<?xml version="1.0" encoding="UTF-8"?>
<!DOCTYPE svg PUBLIC "-//W3C//DTD SVG 1.1//EN" "http://www.w3.org/Graphics/SVG/1.1/DTD/svg11.dtd">
<svg xmlns="http://www.w3.org/2000/svg" version="1.1" width="64px" height="64px" style="shape-rendering:geometricPrecision; text-rendering:geometricPrecision; image-rendering:optimizeQuality; fill-rule:evenodd; clip-rule:evenodd" xmlns:xlink="http://www.w3.org/1999/xlink">
<g><path style="opacity:0.919" fill="#fefffe" d="M 23.5,-0.5 C 28.8333,-0.5 34.1667,-0.5 39.5,-0.5C 51.8333,3.16667 59.8333,11.1667 63.5,23.5C 63.5,28.8333 63.5,34.1667 63.5,39.5C 59.8333,51.8333 51.8333,59.8333 39.5,63.5C 34.1667,63.5 28.8333,63.5 23.5,63.5C 11.1667,59.8333 3.16667,51.8333 -0.5,39.5C -0.5,34.1667 -0.5,28.8333 -0.5,23.5C 3.16667,11.1667 11.1667,3.16667 23.5,-0.5 Z M 43.5,12.5 C 48.1972,13.8743 48.5305,15.8743 44.5,18.5C 41.5285,16.6621 41.1952,14.6621 43.5,12.5 Z M 27.5,24.5 C 33.7163,24.1792 39.5497,25.5125 45,28.5C 48.7396,26.5551 51.2396,27.5551 52.5,31.5C 49.4841,45.5196 40.8175,51.353 26.5,49C 21.849,48.2584 18.0157,46.0917 15,42.5C 14.1773,38.5318 12.6773,34.8652 10.5,31.5C 11.7604,27.5551 14.2604,26.5551 18,28.5C 21.2084,26.9707 24.3751,25.6374 27.5,24.5 Z"/></g>
<g><path style="opacity:0.756" fill="#fefffe" d="M 21.5,31.5 C 27.1581,30.6794 28.8248,32.846 26.5,38C 20.741,39.1387 19.0744,36.972 21.5,31.5 Z"/></g>
<g><path style="opacity:0.757" fill="#fefffe" d="M 36.5,31.5 C 42.1581,30.6794 43.8248,32.846 41.5,38C 35.741,39.1387 34.0744,36.972 36.5,31.5 Z"/></g>
<g><path style="opacity:0.539" fill="#fefffe" d="M 23.5,41.5 C 28.5027,44.084 33.5027,44.084 38.5,41.5C 39.3081,41.8076 39.9747,42.3076 40.5,43C 35.6419,46.821 30.3085,47.4876 24.5,45C 22.6269,44.0471 22.2935,42.8804 23.5,41.5 Z"/></g>
</svg>
